<svg width="25" height="25" viewBox="0 0 25 25" fill="none" xmlns="http://www.w3.org/2000/svg">
<path d="M2.08203 9.37467C2.91083 9.37467 3.70569 9.70391 4.29174 10.29C4.87779 10.876 5.20703 11.6709 5.20703 12.4997C5.20703 13.3285 4.87779 14.1233 4.29174 14.7094C3.70569 15.2954 2.91083 15.6247 2.08203 15.6247V17.708C2.08203 18.2605 2.30152 18.7904 2.69223 19.1811C3.08293 19.5718 3.61283 19.7913 4.16536 19.7913H20.832C21.3846 19.7913 21.9145 19.5718 22.3052 19.1811C22.6959 18.7904 22.9154 18.2605 22.9154 17.708V15.6247C22.0866 15.6247 21.2917 15.2954 20.7057 14.7094C20.1196 14.1233 19.7904 13.3285 19.7904 12.4997C19.7904 11.6709 20.1196 10.876 20.7057 10.29C21.2917 9.70391 22.0866 9.37467 22.9154 9.37467V7.29134C22.9154 6.73881 22.6959 6.2089 22.3052 5.8182C21.9145 5.4275 21.3846 5.20801 20.832 5.20801H4.16536C3.61283 5.20801 3.08293 5.4275 2.69223 5.8182C2.30152 6.2089 2.08203 6.73881 2.08203 7.29134V9.37467Z" stroke="black" stroke-width="1.5" stroke-linecap="round" stroke-linejoin="round"/>
<path d="M9.375 9.375H9.38542" stroke="black" stroke-width="1.5" stroke-linecap="round" stroke-linejoin="round"/>
<path d="M15.625 9.375L9.375 15.625" stroke="black" stroke-width="1.5" stroke-linecap="round" stroke-linejoin="round"/>
<path d="M15.625 15.625H15.6354" stroke="black" stroke-width="1.5" stroke-linecap="round" stroke-linejoin="round"/>
</svg>
