<svg width="554" height="448" viewBox="0 0 554 448" fill="none" xmlns="http://www.w3.org/2000/svg">
<path d="M75 224C75 241.204 59.33 255.15 40 255.15L40 310L43 313H376.02L386.5 303.655V145.164L375.29 135L43 135L40 138V192.85C59.33 192.85 75 206.796 75 224Z" fill="#601E8D"/>
<path d="M553 255.15C533.67 255.15 518 241.204 518 224C518 206.796 533.67 192.85 553 192.85V138L550 135H398.132L386.5 145.164V303.655L397.043 313H550L553 310V255.15Z" fill="white"/>
<path d="M386.5 303.655L376.02 313H43L40 310L40 255.15C59.33 255.15 75 241.204 75 224C75 206.796 59.33 192.85 40 192.85V138L43 135L375.29 135L386.5 145.164M386.5 303.655L397.043 313H550L553 310V255.15C533.67 255.15 518 241.204 518 224C518 206.796 533.67 192.85 553 192.85V138L550 135H398.132L386.5 145.164M386.5 303.655V145.164" stroke="#B1B1B1" stroke-width="0.5" stroke-linejoin="round"/>
<path opacity="0.1" d="M33.0741 238.476C30.2551 241.295 27.241 242.748 24.0316 242.835C20.8006 242.9 17.7214 241.469 14.794 238.541L9.32947 233.077C6.40205 230.149 4.98171 227.081 5.06844 223.872C5.1335 220.641 6.57552 217.616 9.39452 214.797C12.1918 211.999 15.1193 210.612 18.1768 210.633C21.2343 210.612 24.0967 211.934 26.7639 214.601L26.9591 214.797L22.7306 219.025L22.4053 218.7C21.0608 217.355 19.5754 216.629 17.9491 216.521C16.3444 216.39 14.7723 217.095 13.2327 218.635C11.7148 220.153 10.9883 221.812 11.0534 223.611C11.1184 225.411 11.9533 227.114 13.558 228.718L19.1526 234.313C20.7356 235.896 22.4378 236.731 24.2593 236.817C26.0591 236.882 27.718 236.156 29.2359 234.638C30.7755 233.098 31.4803 231.526 31.3502 229.922C31.2201 228.274 30.4936 226.788 29.1709 225.465L28.5854 224.88L32.8139 220.651L33.2693 221.107C35.9365 223.774 37.2701 226.647 37.2701 229.727C37.2701 232.762 35.8714 235.679 33.0741 238.476ZM54.8527 216.698C51.9903 219.56 48.9328 221.056 45.6801 221.186C42.4057 221.295 39.3048 219.885 36.3774 216.958L30.9129 211.493C27.9854 208.566 26.5868 205.476 26.7169 202.223C26.8253 198.949 28.3107 195.88 31.1731 193.018C34.0354 190.156 37.1038 188.67 40.3782 188.562C43.6309 188.432 46.7209 189.83 49.6484 192.758L55.1129 198.222C58.0403 201.15 59.4498 204.251 59.3414 207.525C59.2113 210.778 57.715 213.835 54.8527 216.698ZM51.0145 212.86C52.6191 211.255 53.3998 209.542 53.3564 207.72C53.3131 205.899 52.5107 204.207 50.9494 202.646L45.2247 196.921C43.6634 195.36 41.972 194.558 40.1505 194.514C38.329 194.471 36.6159 195.252 35.0112 196.856C33.4283 198.439 32.6476 200.152 32.6693 201.996C32.7127 203.817 33.515 205.508 35.0763 207.07L40.801 212.794C42.3623 214.356 44.0537 215.158 45.8752 215.201C47.7184 215.223 49.4315 214.443 51.0145 212.86ZM77.4192 194.131C75.5543 195.996 73.6136 197.265 71.5969 197.937C69.5802 198.566 67.5853 198.609 65.612 198.067C63.6387 197.481 61.7846 196.321 60.0499 194.587L45.2826 179.819L49.5762 175.526L64.4735 190.423C65.8613 191.811 67.3467 192.516 68.9297 192.537C70.5344 192.537 72.0848 191.789 73.581 190.293C75.0773 188.797 75.8146 187.257 75.7929 185.674C75.7929 184.069 75.099 182.573 73.7112 181.185L58.8138 166.288L63.1074 161.995L77.8746 176.762C79.6094 178.497 80.7587 180.361 81.3225 182.356C81.8863 184.308 81.8429 186.303 81.1923 188.341C80.5418 190.336 79.2841 192.266 77.4192 194.131ZM90.6861 179.953L67.9173 157.185L77.285 147.817C78.7162 146.386 80.2667 145.421 81.9364 144.922C83.6061 144.38 85.265 144.326 86.913 144.759C88.5827 145.171 90.1332 146.093 91.5644 147.524L92.0197 147.98C93.4292 149.389 94.34 150.95 94.752 152.663C95.164 154.333 95.1098 156.014 94.5894 157.705C94.0689 159.353 93.1148 160.871 91.727 162.259L86.6528 167.333L94.9797 175.66L90.6861 179.953ZM82.7496 163.43L87.4009 158.778C88.4201 157.759 88.9622 156.653 89.0273 155.461C89.0923 154.268 88.6369 153.184 87.6611 152.208L87.3359 151.883C86.3601 150.907 85.2758 150.452 84.0832 150.517C82.8905 150.582 81.7846 151.124 80.7654 152.143L76.1141 156.794L82.7496 163.43ZM120.27 151.28C117.408 154.143 114.35 155.639 111.097 155.769C107.823 155.878 104.722 154.468 101.795 151.541L96.3301 146.076C93.4026 143.149 92.004 140.059 92.1341 136.806C92.2425 133.532 93.7279 130.463 96.5903 127.601C99.4526 124.739 102.521 123.253 105.795 123.145C109.048 123.015 112.138 124.413 115.066 127.341L120.53 132.805C123.458 135.733 124.867 138.834 124.759 142.108C124.628 145.361 123.132 148.418 120.27 151.28ZM116.432 147.442C118.036 145.838 118.817 144.125 118.774 142.303C118.73 140.482 117.928 138.79 116.367 137.229L110.642 131.504C109.081 129.943 107.389 129.141 105.568 129.097C103.746 129.054 102.033 129.834 100.428 131.439C98.8455 133.022 98.0648 134.735 98.0865 136.578C98.1299 138.4 98.9322 140.091 100.494 141.653L106.218 147.377C107.78 148.939 109.471 149.741 111.292 149.784C113.136 149.806 114.849 149.025 116.432 147.442ZM133.599 137.041L110.83 114.272L118.994 106.108L143.357 121.428L143.942 120.842L124.101 101.001L128.329 96.7725L151.098 119.541L142.934 127.706L118.571 112.385L117.986 112.971L137.827 132.812L133.599 137.041Z" fill="white"/>
<path opacity="0.1" d="M73.0741 278.476C70.2551 281.295 67.241 282.748 64.0316 282.835C60.8006 282.9 57.7214 281.469 54.794 278.541L49.3295 273.077C46.402 270.149 44.9817 267.081 45.0684 263.872C45.1335 260.641 46.5755 257.616 49.3945 254.797C52.1918 251.999 55.1193 250.612 58.1768 250.633C61.2343 250.612 64.0967 251.934 66.7639 254.601L66.9591 254.797L62.7306 259.025L62.4053 258.7C61.0608 257.355 59.5754 256.629 57.9491 256.521C56.3444 256.39 54.7723 257.095 53.2327 258.635C51.7148 260.153 50.9883 261.812 51.0534 263.611C51.1184 265.411 51.9533 267.114 53.558 268.718L59.1526 274.313C60.7356 275.896 62.4378 276.731 64.2593 276.817C66.0591 276.882 67.718 276.156 69.2359 274.638C70.7755 273.098 71.4803 271.526 71.3502 269.922C71.2201 268.274 70.4936 266.788 69.1709 265.465L68.5854 264.88L72.8139 260.651L73.2693 261.107C75.9365 263.774 77.2701 266.647 77.2701 269.727C77.2701 272.762 75.8714 275.679 73.0741 278.476ZM94.8527 256.698C91.9903 259.56 88.9328 261.056 85.6801 261.186C82.4057 261.295 79.3048 259.885 76.3774 256.958L70.9129 251.493C67.9854 248.566 66.5868 245.476 66.7169 242.223C66.8253 238.949 68.3107 235.88 71.1731 233.018C74.0354 230.156 77.1038 228.67 80.3782 228.562C83.6309 228.432 86.7209 229.83 89.6484 232.758L95.1129 238.222C98.0403 241.15 99.4498 244.251 99.3414 247.525C99.2113 250.778 97.715 253.835 94.8527 256.698ZM91.0145 252.86C92.6191 251.255 93.3998 249.542 93.3564 247.72C93.3131 245.899 92.5107 244.207 90.9494 242.646L85.2247 236.921C83.6634 235.36 81.972 234.558 80.1505 234.514C78.329 234.471 76.6159 235.252 75.0112 236.856C73.4283 238.439 72.6476 240.152 72.6693 241.996C72.7127 243.817 73.515 245.508 75.0763 247.07L80.801 252.794C82.3623 254.356 84.0537 255.158 85.8752 255.201C87.7184 255.223 89.4315 254.443 91.0145 252.86ZM117.419 234.131C115.554 235.996 113.614 237.265 111.597 237.937C109.58 238.566 107.585 238.609 105.612 238.067C103.639 237.481 101.785 236.321 100.05 234.587L85.2826 219.819L89.5762 215.526L104.474 230.423C105.861 231.811 107.347 232.516 108.93 232.537C110.534 232.537 112.085 231.789 113.581 230.293C115.077 228.797 115.815 227.257 115.793 225.674C115.793 224.069 115.099 222.573 113.711 221.185L98.8138 206.288L103.107 201.995L117.875 216.762C119.609 218.497 120.759 220.361 121.322 222.356C121.886 224.308 121.843 226.303 121.192 228.341C120.542 230.336 119.284 232.266 117.419 234.131ZM130.686 219.953L107.917 197.185L117.285 187.817C118.716 186.386 120.267 185.421 121.936 184.922C123.606 184.38 125.265 184.326 126.913 184.759C128.583 185.171 130.133 186.093 131.564 187.524L132.02 187.98C133.429 189.389 134.34 190.95 134.752 192.663C135.164 194.333 135.11 196.014 134.589 197.705C134.069 199.353 133.115 200.871 131.727 202.259L126.653 207.333L134.98 215.66L130.686 219.953ZM122.75 203.43L127.401 198.778C128.42 197.759 128.962 196.653 129.027 195.461C129.092 194.268 128.637 193.184 127.661 192.208L127.336 191.883C126.36 190.907 125.276 190.452 124.083 190.517C122.891 190.582 121.785 191.124 120.765 192.143L116.114 196.794L122.75 203.43ZM160.27 191.28C157.408 194.143 154.35 195.639 151.097 195.769C147.823 195.878 144.722 194.468 141.795 191.541L136.33 186.076C133.403 183.149 132.004 180.059 132.134 176.806C132.243 173.532 133.728 170.463 136.59 167.601C139.453 164.739 142.521 163.253 145.795 163.145C149.048 163.015 152.138 164.413 155.066 167.341L160.53 172.805C163.458 175.733 164.867 178.834 164.759 182.108C164.628 185.361 163.132 188.418 160.27 191.28ZM156.432 187.442C158.036 185.838 158.817 184.125 158.774 182.303C158.73 180.482 157.928 178.79 156.367 177.229L150.642 171.504C149.081 169.943 147.389 169.141 145.568 169.097C143.746 169.054 142.033 169.834 140.428 171.439C138.845 173.022 138.065 174.735 138.087 176.578C138.13 178.4 138.932 180.091 140.494 181.653L146.218 187.377C147.78 188.939 149.471 189.741 151.292 189.784C153.136 189.806 154.849 189.025 156.432 187.442ZM173.599 177.041L150.83 154.272L158.994 146.108L183.357 161.428L183.942 160.842L164.101 141.001L168.329 136.772L191.098 159.541L182.934 167.706L158.571 152.385L157.986 152.971L177.827 172.812L173.599 177.041Z" fill="white"/>
<path opacity="0.1" d="M209.074 142.476C206.255 145.295 203.241 146.748 200.032 146.835C196.801 146.9 193.721 145.469 190.794 142.541L185.329 137.077C182.402 134.149 180.982 131.081 181.068 127.872C181.133 124.641 182.576 121.616 185.395 118.797C188.192 115.999 191.119 114.612 194.177 114.633C197.234 114.612 200.097 115.934 202.764 118.601L202.959 118.797L198.731 123.025L198.405 122.7C197.061 121.355 195.575 120.629 193.949 120.521C192.344 120.39 190.772 121.095 189.233 122.635C187.715 124.153 186.988 125.812 187.053 127.611C187.118 129.411 187.953 131.114 189.558 132.718L195.153 138.313C196.736 139.896 198.438 140.731 200.259 140.817C202.059 140.882 203.718 140.156 205.236 138.638C206.776 137.098 207.48 135.526 207.35 133.922C207.22 132.274 206.494 130.788 205.171 129.465L204.585 128.88L208.814 124.651L209.269 125.107C211.936 127.774 213.27 130.647 213.27 133.727C213.27 136.762 211.871 139.679 209.074 142.476ZM230.853 120.698C227.99 123.56 224.933 125.056 221.68 125.186C218.406 125.295 215.305 123.885 212.377 120.958L206.913 115.493C203.985 112.566 202.587 109.476 202.717 106.223C202.825 102.949 204.311 99.8805 207.173 97.0181C210.035 94.1557 213.104 92.6703 216.378 92.5619C219.631 92.4318 222.721 93.8305 225.648 96.7579L231.113 102.222C234.04 105.15 235.45 108.251 235.341 111.525C235.211 114.778 233.715 117.835 230.853 120.698ZM227.014 116.86C228.619 115.255 229.4 113.542 229.356 111.72C229.313 109.899 228.511 108.207 226.949 106.646L221.225 100.921C219.663 99.36 217.972 98.5577 216.15 98.5143C214.329 98.471 212.616 99.2516 211.011 100.856C209.428 102.439 208.648 104.152 208.669 105.996C208.713 107.817 209.515 109.508 211.076 111.07L216.801 116.794C218.362 118.356 220.054 119.158 221.875 119.201C223.718 119.223 225.432 118.443 227.014 116.86ZM253.419 98.1311C251.554 99.996 249.614 101.265 247.597 101.937C245.58 102.566 243.585 102.609 241.612 102.067C239.639 101.481 237.785 100.321 236.05 98.5865L221.283 83.8193L225.576 79.5257L240.474 94.4231C241.861 95.8109 243.347 96.5156 244.93 96.5373C246.534 96.5373 248.085 95.7892 249.581 94.293C251.077 92.7967 251.815 91.2571 251.793 89.6741C251.793 88.0695 251.099 86.5732 249.711 85.1854L234.814 70.2881L239.107 65.9945L253.875 80.7618C255.609 82.4965 256.759 84.3614 257.322 86.3564C257.886 88.308 257.843 90.303 257.192 92.3413C256.542 94.3363 255.284 96.2663 253.419 98.1311ZM266.686 83.9535L243.917 61.1846L253.285 51.8169C254.716 50.3857 256.267 49.4207 257.936 48.922C259.606 48.3799 261.265 48.3257 262.913 48.7594C264.583 49.1714 266.133 50.093 267.564 51.5241L268.02 51.9795C269.429 53.389 270.34 54.9503 270.752 56.6634C271.164 58.3331 271.11 60.0137 270.589 61.7051C270.069 63.3531 269.115 64.871 267.727 66.2588L262.653 71.333L270.98 79.6599L266.686 83.9535ZM258.75 67.4298L263.401 62.7785C264.42 61.7593 264.962 60.6534 265.027 59.4607C265.092 58.2681 264.637 57.1838 263.661 56.208L263.336 55.8827C262.36 54.9069 261.276 54.4516 260.083 54.5166C258.891 54.5817 257.785 55.1238 256.765 56.143L252.114 60.7943L258.75 67.4298ZM296.27 55.2805C293.408 58.1429 290.35 59.6391 287.097 59.7692C283.823 59.8776 280.722 58.4681 277.795 55.5407L272.33 50.0762C269.403 47.1488 268.004 44.0587 268.134 40.806C268.243 37.5316 269.728 34.4633 272.59 31.6009C275.453 28.7385 278.521 27.2531 281.795 27.1447C285.048 27.0146 288.138 28.4133 291.066 31.3407L296.53 36.8052C299.458 39.7326 300.867 42.8335 300.759 46.1079C300.628 49.3606 299.132 52.4181 296.27 55.2805ZM292.432 51.4423C294.036 49.8377 294.817 48.1246 294.774 46.3031C294.73 44.4816 293.928 42.7902 292.367 41.2289L286.642 35.5041C285.081 33.9428 283.389 33.1405 281.568 33.0971C279.746 33.0538 278.033 33.8344 276.428 35.4391C274.845 37.0221 274.065 38.7351 274.087 40.5783C274.13 42.3998 274.932 44.0912 276.494 45.6525L282.218 51.3773C283.78 52.9386 285.471 53.7409 287.292 53.7843C289.136 53.8059 290.849 53.0253 292.432 51.4423ZM309.599 41.0408L286.83 18.272L294.994 10.1077L319.357 25.4279L319.942 24.8424L300.101 5.00099L304.329 0.772496L327.098 23.5413L318.934 31.7056L294.571 16.3854L293.986 16.9709L313.827 36.8123L309.599 41.0408Z" fill="white"/>
<path opacity="0.1" d="M113.074 318.476C110.255 321.295 107.241 322.748 104.032 322.835C100.801 322.9 97.7214 321.469 94.794 318.541L89.3295 313.077C86.402 310.149 84.9817 307.081 85.0684 303.872C85.1335 300.641 86.5755 297.616 89.3945 294.797C92.1918 291.999 95.1193 290.612 98.1768 290.633C101.234 290.612 104.097 291.934 106.764 294.601L106.959 294.797L102.731 299.025L102.405 298.7C101.061 297.355 99.5754 296.629 97.9491 296.521C96.3444 296.39 94.7723 297.095 93.2327 298.635C91.7148 300.153 90.9883 301.812 91.0534 303.611C91.1184 305.411 91.9533 307.114 93.558 308.718L99.1526 314.313C100.736 315.896 102.438 316.731 104.259 316.817C106.059 316.882 107.718 316.156 109.236 314.638C110.776 313.098 111.48 311.526 111.35 309.922C111.22 308.274 110.494 306.788 109.171 305.465L108.585 304.88L112.814 300.651L113.269 301.107C115.936 303.774 117.27 306.647 117.27 309.727C117.27 312.762 115.871 315.679 113.074 318.476ZM134.853 296.698C131.99 299.56 128.933 301.056 125.68 301.186C122.406 301.295 119.305 299.885 116.377 296.958L110.913 291.493C107.985 288.566 106.587 285.476 106.717 282.223C106.825 278.949 108.311 275.88 111.173 273.018C114.035 270.156 117.104 268.67 120.378 268.562C123.631 268.432 126.721 269.83 129.648 272.758L135.113 278.222C138.04 281.15 139.45 284.251 139.341 287.525C139.211 290.778 137.715 293.835 134.853 296.698ZM131.014 292.86C132.619 291.255 133.4 289.542 133.356 287.72C133.313 285.899 132.511 284.207 130.949 282.646L125.225 276.921C123.663 275.36 121.972 274.558 120.15 274.514C118.329 274.471 116.616 275.252 115.011 276.856C113.428 278.439 112.648 280.152 112.669 281.996C112.713 283.817 113.515 285.508 115.076 287.07L120.801 292.794C122.362 294.356 124.054 295.158 125.875 295.201C127.718 295.223 129.432 294.443 131.014 292.86ZM157.419 274.131C155.554 275.996 153.614 277.265 151.597 277.937C149.58 278.566 147.585 278.609 145.612 278.067C143.639 277.481 141.785 276.321 140.05 274.587L125.283 259.819L129.576 255.526L144.474 270.423C145.861 271.811 147.347 272.516 148.93 272.537C150.534 272.537 152.085 271.789 153.581 270.293C155.077 268.797 155.815 267.257 155.793 265.674C155.793 264.069 155.099 262.573 153.711 261.185L138.814 246.288L143.107 241.995L157.875 256.762C159.609 258.497 160.759 260.361 161.322 262.356C161.886 264.308 161.843 266.303 161.192 268.341C160.542 270.336 159.284 272.266 157.419 274.131ZM170.686 259.953L147.917 237.185L157.285 227.817C158.716 226.386 160.267 225.421 161.936 224.922C163.606 224.38 165.265 224.326 166.913 224.759C168.583 225.171 170.133 226.093 171.564 227.524L172.02 227.98C173.429 229.389 174.34 230.95 174.752 232.663C175.164 234.333 175.11 236.014 174.589 237.705C174.069 239.353 173.115 240.871 171.727 242.259L166.653 247.333L174.98 255.66L170.686 259.953ZM162.75 243.43L167.401 238.778C168.42 237.759 168.962 236.653 169.027 235.461C169.092 234.268 168.637 233.184 167.661 232.208L167.336 231.883C166.36 230.907 165.276 230.452 164.083 230.517C162.891 230.582 161.785 231.124 160.765 232.143L156.114 236.794L162.75 243.43ZM200.27 231.28C197.408 234.143 194.35 235.639 191.097 235.769C187.823 235.878 184.722 234.468 181.795 231.541L176.33 226.076C173.403 223.149 172.004 220.059 172.134 216.806C172.243 213.532 173.728 210.463 176.59 207.601C179.453 204.739 182.521 203.253 185.795 203.145C189.048 203.015 192.138 204.413 195.066 207.341L200.53 212.805C203.458 215.733 204.867 218.834 204.759 222.108C204.628 225.361 203.132 228.418 200.27 231.28ZM196.432 227.442C198.036 225.838 198.817 224.125 198.774 222.303C198.73 220.482 197.928 218.79 196.367 217.229L190.642 211.504C189.081 209.943 187.389 209.141 185.568 209.097C183.746 209.054 182.033 209.834 180.428 211.439C178.845 213.022 178.065 214.735 178.087 216.578C178.13 218.4 178.932 220.091 180.494 221.653L186.218 227.377C187.78 228.939 189.471 229.741 191.292 229.784C193.136 229.806 194.849 229.025 196.432 227.442ZM213.599 217.041L190.83 194.272L198.994 186.108L223.357 201.428L223.942 200.842L204.101 181.001L208.329 176.772L231.098 199.541L222.934 207.706L198.571 192.385L197.986 192.971L217.827 212.812L213.599 217.041Z" fill="white"/>
<path opacity="0.1" d="M249.074 182.476C246.255 185.295 243.241 186.748 240.032 186.835C236.801 186.9 233.721 185.469 230.794 182.541L225.329 177.077C222.402 174.149 220.982 171.081 221.068 167.872C221.133 164.641 222.576 161.616 225.395 158.797C228.192 155.999 231.119 154.612 234.177 154.633C237.234 154.612 240.097 155.934 242.764 158.601L242.959 158.797L238.731 163.025L238.405 162.7C237.061 161.355 235.575 160.629 233.949 160.521C232.344 160.39 230.772 161.095 229.233 162.635C227.715 164.153 226.988 165.812 227.053 167.611C227.118 169.411 227.953 171.114 229.558 172.718L235.153 178.313C236.736 179.896 238.438 180.731 240.259 180.817C242.059 180.882 243.718 180.156 245.236 178.638C246.776 177.098 247.48 175.526 247.35 173.922C247.22 172.274 246.494 170.788 245.171 169.465L244.585 168.88L248.814 164.651L249.269 165.107C251.936 167.774 253.27 170.647 253.27 173.727C253.27 176.762 251.871 179.679 249.074 182.476ZM270.853 160.698C267.99 163.56 264.933 165.056 261.68 165.186C258.406 165.295 255.305 163.885 252.377 160.958L246.913 155.493C243.985 152.566 242.587 149.476 242.717 146.223C242.825 142.949 244.311 139.88 247.173 137.018C250.035 134.156 253.104 132.67 256.378 132.562C259.631 132.432 262.721 133.83 265.648 136.758L271.113 142.222C274.04 145.15 275.45 148.251 275.341 151.525C275.211 154.778 273.715 157.835 270.853 160.698ZM267.014 156.86C268.619 155.255 269.4 153.542 269.356 151.72C269.313 149.899 268.511 148.207 266.949 146.646L261.225 140.921C259.663 139.36 257.972 138.558 256.15 138.514C254.329 138.471 252.616 139.252 251.011 140.856C249.428 142.439 248.648 144.152 248.669 145.996C248.713 147.817 249.515 149.508 251.076 151.07L256.801 156.794C258.362 158.356 260.054 159.158 261.875 159.201C263.718 159.223 265.432 158.443 267.014 156.86ZM293.419 138.131C291.554 139.996 289.614 141.265 287.597 141.937C285.58 142.566 283.585 142.609 281.612 142.067C279.639 141.481 277.785 140.321 276.05 138.587L261.283 123.819L265.576 119.526L280.474 134.423C281.861 135.811 283.347 136.516 284.93 136.537C286.534 136.537 288.085 135.789 289.581 134.293C291.077 132.797 291.815 131.257 291.793 129.674C291.793 128.069 291.099 126.573 289.711 125.185L274.814 110.288L279.107 105.995L293.875 120.762C295.609 122.497 296.759 124.361 297.322 126.356C297.886 128.308 297.843 130.303 297.192 132.341C296.542 134.336 295.284 136.266 293.419 138.131ZM306.686 123.953L283.917 101.185L293.285 91.8169C294.716 90.3857 296.267 89.4207 297.936 88.922C299.606 88.3799 301.265 88.3257 302.913 88.7594C304.583 89.1714 306.133 90.093 307.564 91.5241L308.02 91.9795C309.429 93.389 310.34 94.9503 310.752 96.6634C311.164 98.3331 311.11 100.014 310.589 101.705C310.069 103.353 309.115 104.871 307.727 106.259L302.653 111.333L310.98 119.66L306.686 123.953ZM298.75 107.43L303.401 102.778C304.42 101.759 304.962 100.653 305.027 99.4607C305.092 98.2681 304.637 97.1838 303.661 96.208L303.336 95.8827C302.36 94.9069 301.276 94.4516 300.083 94.5166C298.891 94.5817 297.785 95.1238 296.765 96.143L292.114 100.794L298.75 107.43ZM336.27 95.2805C333.408 98.1429 330.35 99.6391 327.097 99.7692C323.823 99.8776 320.722 98.4681 317.795 95.5407L312.33 90.0762C309.403 87.1488 308.004 84.0587 308.134 80.806C308.243 77.5316 309.728 74.4633 312.59 71.6009C315.453 68.7385 318.521 67.2531 321.795 67.1447C325.048 67.0146 328.138 68.4133 331.066 71.3407L336.53 76.8052C339.458 79.7326 340.867 82.8335 340.759 86.1079C340.628 89.3606 339.132 92.4181 336.27 95.2805ZM332.432 91.4423C334.036 89.8377 334.817 88.1246 334.774 86.3031C334.73 84.4816 333.928 82.7902 332.367 81.2289L326.642 75.5041C325.081 73.9428 323.389 73.1405 321.568 73.0971C319.746 73.0538 318.033 73.8344 316.428 75.4391C314.845 77.0221 314.065 78.7351 314.087 80.5783C314.13 82.3998 314.932 84.0912 316.494 85.6525L322.218 91.3773C323.78 92.9386 325.471 93.7409 327.292 93.7843C329.136 93.8059 330.849 93.0253 332.432 91.4423ZM349.599 81.0408L326.83 58.272L334.994 50.1077L359.357 65.4279L359.942 64.8424L340.101 45.001L344.329 40.7725L367.098 63.5413L358.934 71.7056L334.571 56.3854L333.986 56.9709L353.827 76.8123L349.599 81.0408Z" fill="white"/>
<path opacity="0.1" d="M153.074 358.476C150.255 361.295 147.241 362.748 144.032 362.835C140.801 362.9 137.721 361.469 134.794 358.541L129.329 353.077C126.402 350.149 124.982 347.081 125.068 343.872C125.133 340.641 126.576 337.616 129.395 334.797C132.192 331.999 135.119 330.612 138.177 330.633C141.234 330.612 144.097 331.934 146.764 334.601L146.959 334.797L142.731 339.025L142.405 338.7C141.061 337.355 139.575 336.629 137.949 336.521C136.344 336.39 134.772 337.095 133.233 338.635C131.715 340.153 130.988 341.812 131.053 343.611C131.118 345.411 131.953 347.114 133.558 348.718L139.153 354.313C140.736 355.896 142.438 356.731 144.259 356.817C146.059 356.882 147.718 356.156 149.236 354.638C150.776 353.098 151.48 351.526 151.35 349.922C151.22 348.274 150.494 346.788 149.171 345.465L148.585 344.88L152.814 340.651L153.269 341.107C155.936 343.774 157.27 346.647 157.27 349.727C157.27 352.762 155.871 355.679 153.074 358.476ZM174.853 336.698C171.99 339.56 168.933 341.056 165.68 341.186C162.406 341.295 159.305 339.885 156.377 336.958L150.913 331.493C147.985 328.566 146.587 325.476 146.717 322.223C146.825 318.949 148.311 315.88 151.173 313.018C154.035 310.156 157.104 308.67 160.378 308.562C163.631 308.432 166.721 309.83 169.648 312.758L175.113 318.222C178.04 321.15 179.45 324.251 179.341 327.525C179.211 330.778 177.715 333.835 174.853 336.698ZM171.014 332.86C172.619 331.255 173.4 329.542 173.356 327.72C173.313 325.899 172.511 324.207 170.949 322.646L165.225 316.921C163.663 315.36 161.972 314.558 160.15 314.514C158.329 314.471 156.616 315.252 155.011 316.856C153.428 318.439 152.648 320.152 152.669 321.996C152.713 323.817 153.515 325.508 155.076 327.07L160.801 332.794C162.362 334.356 164.054 335.158 165.875 335.201C167.718 335.223 169.432 334.443 171.014 332.86ZM197.419 314.131C195.554 315.996 193.614 317.265 191.597 317.937C189.58 318.566 187.585 318.609 185.612 318.067C183.639 317.481 181.785 316.321 180.05 314.587L165.283 299.819L169.576 295.526L184.474 310.423C185.861 311.811 187.347 312.516 188.93 312.537C190.534 312.537 192.085 311.789 193.581 310.293C195.077 308.797 195.815 307.257 195.793 305.674C195.793 304.069 195.099 302.573 193.711 301.185L178.814 286.288L183.107 281.995L197.875 296.762C199.609 298.497 200.759 300.361 201.322 302.356C201.886 304.308 201.843 306.303 201.192 308.341C200.542 310.336 199.284 312.266 197.419 314.131ZM210.686 299.953L187.917 277.185L197.285 267.817C198.716 266.386 200.267 265.421 201.936 264.922C203.606 264.38 205.265 264.326 206.913 264.759C208.583 265.171 210.133 266.093 211.564 267.524L212.02 267.98C213.429 269.389 214.34 270.95 214.752 272.663C215.164 274.333 215.11 276.014 214.589 277.705C214.069 279.353 213.115 280.871 211.727 282.259L206.653 287.333L214.98 295.66L210.686 299.953ZM202.75 283.43L207.401 278.778C208.42 277.759 208.962 276.653 209.027 275.461C209.092 274.268 208.637 273.184 207.661 272.208L207.336 271.883C206.36 270.907 205.276 270.452 204.083 270.517C202.891 270.582 201.785 271.124 200.765 272.143L196.114 276.794L202.75 283.43ZM240.27 271.28C237.408 274.143 234.35 275.639 231.097 275.769C227.823 275.878 224.722 274.468 221.795 271.541L216.33 266.076C213.403 263.149 212.004 260.059 212.134 256.806C212.243 253.532 213.728 250.463 216.59 247.601C219.453 244.739 222.521 243.253 225.795 243.145C229.048 243.015 232.138 244.413 235.066 247.341L240.53 252.805C243.458 255.733 244.867 258.834 244.759 262.108C244.628 265.361 243.132 268.418 240.27 271.28ZM236.432 267.442C238.036 265.838 238.817 264.125 238.774 262.303C238.73 260.482 237.928 258.79 236.367 257.229L230.642 251.504C229.081 249.943 227.389 249.141 225.568 249.097C223.746 249.054 222.033 249.834 220.428 251.439C218.845 253.022 218.065 254.735 218.087 256.578C218.13 258.4 218.932 260.091 220.494 261.653L226.218 267.377C227.78 268.939 229.471 269.741 231.292 269.784C233.136 269.806 234.849 269.025 236.432 267.442ZM253.599 257.041L230.83 234.272L238.994 226.108L263.357 241.428L263.942 240.842L244.101 221.001L248.329 216.772L271.098 239.541L262.934 247.706L238.571 232.385L237.986 232.971L257.827 252.812L253.599 257.041Z" fill="white"/>
<path opacity="0.1" d="M289.074 222.476C286.255 225.295 283.241 226.748 280.032 226.835C276.801 226.9 273.721 225.469 270.794 222.541L265.329 217.077C262.402 214.149 260.982 211.081 261.068 207.872C261.133 204.641 262.576 201.616 265.395 198.797C268.192 195.999 271.119 194.612 274.177 194.633C277.234 194.612 280.097 195.934 282.764 198.601L282.959 198.797L278.731 203.025L278.405 202.7C277.061 201.355 275.575 200.629 273.949 200.521C272.344 200.39 270.772 201.095 269.233 202.635C267.715 204.153 266.988 205.812 267.053 207.611C267.118 209.411 267.953 211.114 269.558 212.718L275.153 218.313C276.736 219.896 278.438 220.731 280.259 220.817C282.059 220.882 283.718 220.156 285.236 218.638C286.776 217.098 287.48 215.526 287.35 213.922C287.22 212.274 286.494 210.788 285.171 209.465L284.585 208.88L288.814 204.651L289.269 205.107C291.936 207.774 293.27 210.647 293.27 213.727C293.27 216.762 291.871 219.679 289.074 222.476ZM310.853 200.698C307.99 203.56 304.933 205.056 301.68 205.186C298.406 205.295 295.305 203.885 292.377 200.958L286.913 195.493C283.985 192.566 282.587 189.476 282.717 186.223C282.825 182.949 284.311 179.88 287.173 177.018C290.035 174.156 293.104 172.67 296.378 172.562C299.631 172.432 302.721 173.83 305.648 176.758L311.113 182.222C314.04 185.15 315.45 188.251 315.341 191.525C315.211 194.778 313.715 197.835 310.853 200.698ZM307.014 196.86C308.619 195.255 309.4 193.542 309.356 191.72C309.313 189.899 308.511 188.207 306.949 186.646L301.225 180.921C299.663 179.36 297.972 178.558 296.15 178.514C294.329 178.471 292.616 179.252 291.011 180.856C289.428 182.439 288.648 184.152 288.669 185.996C288.713 187.817 289.515 189.508 291.076 191.07L296.801 196.794C298.362 198.356 300.054 199.158 301.875 199.201C303.718 199.223 305.432 198.443 307.014 196.86ZM333.419 178.131C331.554 179.996 329.614 181.265 327.597 181.937C325.58 182.566 323.585 182.609 321.612 182.067C319.639 181.481 317.785 180.321 316.05 178.587L301.283 163.819L305.576 159.526L320.474 174.423C321.861 175.811 323.347 176.516 324.93 176.537C326.534 176.537 328.085 175.789 329.581 174.293C331.077 172.797 331.815 171.257 331.793 169.674C331.793 168.069 331.099 166.573 329.711 165.185L314.814 150.288L319.107 145.995L333.875 160.762C335.609 162.497 336.759 164.361 337.322 166.356C337.886 168.308 337.843 170.303 337.192 172.341C336.542 174.336 335.284 176.266 333.419 178.131ZM346.686 163.953L323.917 141.185L333.285 131.817C334.716 130.386 336.267 129.421 337.936 128.922C339.606 128.38 341.265 128.326 342.913 128.759C344.583 129.171 346.133 130.093 347.564 131.524L348.02 131.98C349.429 133.389 350.34 134.95 350.752 136.663C351.164 138.333 351.11 140.014 350.589 141.705C350.069 143.353 349.115 144.871 347.727 146.259L342.653 151.333L350.98 159.66L346.686 163.953ZM338.75 147.43L343.401 142.778C344.42 141.759 344.962 140.653 345.027 139.461C345.092 138.268 344.637 137.184 343.661 136.208L343.336 135.883C342.36 134.907 341.276 134.452 340.083 134.517C338.891 134.582 337.785 135.124 336.765 136.143L332.114 140.794L338.75 147.43ZM376.27 135.28C373.408 138.143 370.35 139.639 367.097 139.769C363.823 139.878 360.722 138.468 357.795 135.541L352.33 130.076C349.403 127.149 348.004 124.059 348.134 120.806C348.243 117.532 349.728 114.463 352.59 111.601C355.453 108.739 358.521 107.253 361.795 107.145C365.048 107.015 368.138 108.413 371.066 111.341L376.53 116.805C379.458 119.733 380.867 122.834 380.759 126.108C380.628 129.361 379.132 132.418 376.27 135.28ZM372.432 131.442C374.036 129.838 374.817 128.125 374.774 126.303C374.73 124.482 373.928 122.79 372.367 121.229L366.642 115.504C365.081 113.943 363.389 113.141 361.568 113.097C359.746 113.054 358.033 113.834 356.428 115.439C354.845 117.022 354.065 118.735 354.087 120.578C354.13 122.4 354.932 124.091 356.494 125.653L362.218 131.377C363.78 132.939 365.471 133.741 367.292 133.784C369.136 133.806 370.849 133.025 372.432 131.442ZM389.599 121.041L366.83 98.272L374.994 90.1077L399.357 105.428L399.942 104.842L380.101 85.001L384.329 80.7725L407.098 103.541L398.934 111.706L374.571 96.3854L373.986 96.9709L393.827 116.812L389.599 121.041Z" fill="white"/>
<path opacity="0.1" d="M193.074 398.476C190.255 401.295 187.241 402.748 184.032 402.835C180.801 402.9 177.721 401.469 174.794 398.541L169.329 393.077C166.402 390.149 164.982 387.081 165.068 383.872C165.133 380.641 166.576 377.616 169.395 374.797C172.192 371.999 175.119 370.612 178.177 370.633C181.234 370.612 184.097 371.934 186.764 374.601L186.959 374.797L182.731 379.025L182.405 378.7C181.061 377.355 179.575 376.629 177.949 376.521C176.344 376.39 174.772 377.095 173.233 378.635C171.715 380.153 170.988 381.812 171.053 383.611C171.118 385.411 171.953 387.114 173.558 388.718L179.153 394.313C180.736 395.896 182.438 396.731 184.259 396.817C186.059 396.882 187.718 396.156 189.236 394.638C190.776 393.098 191.48 391.526 191.35 389.922C191.22 388.274 190.494 386.788 189.171 385.465L188.585 384.88L192.814 380.651L193.269 381.107C195.936 383.774 197.27 386.647 197.27 389.727C197.27 392.762 195.871 395.679 193.074 398.476ZM214.853 376.698C211.99 379.56 208.933 381.056 205.68 381.186C202.406 381.295 199.305 379.885 196.377 376.958L190.913 371.493C187.985 368.566 186.587 365.476 186.717 362.223C186.825 358.949 188.311 355.88 191.173 353.018C194.035 350.156 197.104 348.67 200.378 348.562C203.631 348.432 206.721 349.83 209.648 352.758L215.113 358.222C218.04 361.15 219.45 364.251 219.341 367.525C219.211 370.778 217.715 373.835 214.853 376.698ZM211.014 372.86C212.619 371.255 213.4 369.542 213.356 367.72C213.313 365.899 212.511 364.207 210.949 362.646L205.225 356.921C203.663 355.36 201.972 354.558 200.15 354.514C198.329 354.471 196.616 355.252 195.011 356.856C193.428 358.439 192.648 360.152 192.669 361.996C192.713 363.817 193.515 365.508 195.076 367.07L200.801 372.794C202.362 374.356 204.054 375.158 205.875 375.201C207.718 375.223 209.432 374.443 211.014 372.86ZM237.419 354.131C235.554 355.996 233.614 357.265 231.597 357.937C229.58 358.566 227.585 358.609 225.612 358.067C223.639 357.481 221.785 356.321 220.05 354.587L205.283 339.819L209.576 335.526L224.474 350.423C225.861 351.811 227.347 352.516 228.93 352.537C230.534 352.537 232.085 351.789 233.581 350.293C235.077 348.797 235.815 347.257 235.793 345.674C235.793 344.069 235.099 342.573 233.711 341.185L218.814 326.288L223.107 321.995L237.875 336.762C239.609 338.497 240.759 340.361 241.322 342.356C241.886 344.308 241.843 346.303 241.192 348.341C240.542 350.336 239.284 352.266 237.419 354.131ZM250.686 339.953L227.917 317.185L237.285 307.817C238.716 306.386 240.267 305.421 241.936 304.922C243.606 304.38 245.265 304.326 246.913 304.759C248.583 305.171 250.133 306.093 251.564 307.524L252.02 307.98C253.429 309.389 254.34 310.95 254.752 312.663C255.164 314.333 255.11 316.014 254.589 317.705C254.069 319.353 253.115 320.871 251.727 322.259L246.653 327.333L254.98 335.66L250.686 339.953ZM242.75 323.43L247.401 318.778C248.42 317.759 248.962 316.653 249.027 315.461C249.092 314.268 248.637 313.184 247.661 312.208L247.336 311.883C246.36 310.907 245.276 310.452 244.083 310.517C242.891 310.582 241.785 311.124 240.765 312.143L236.114 316.794L242.75 323.43ZM280.27 311.28C277.408 314.143 274.35 315.639 271.097 315.769C267.823 315.878 264.722 314.468 261.795 311.541L256.33 306.076C253.403 303.149 252.004 300.059 252.134 296.806C252.243 293.532 253.728 290.463 256.59 287.601C259.453 284.739 262.521 283.253 265.795 283.145C269.048 283.015 272.138 284.413 275.066 287.341L280.53 292.805C283.458 295.733 284.867 298.834 284.759 302.108C284.628 305.361 283.132 308.418 280.27 311.28ZM276.432 307.442C278.036 305.838 278.817 304.125 278.774 302.303C278.73 300.482 277.928 298.79 276.367 297.229L270.642 291.504C269.081 289.943 267.389 289.141 265.568 289.097C263.746 289.054 262.033 289.834 260.428 291.439C258.845 293.022 258.065 294.735 258.087 296.578C258.13 298.4 258.932 300.091 260.494 301.653L266.218 307.377C267.78 308.939 269.471 309.741 271.292 309.784C273.136 309.806 274.849 309.025 276.432 307.442ZM293.599 297.041L270.83 274.272L278.994 266.108L303.357 281.428L303.942 280.842L284.101 261.001L288.329 256.772L311.098 279.541L302.934 287.706L278.571 272.385L277.986 272.971L297.827 292.812L293.599 297.041Z" fill="white"/>
<path opacity="0.1" d="M329.074 262.476C326.255 265.295 323.241 266.748 320.032 266.835C316.801 266.9 313.721 265.469 310.794 262.541L305.329 257.077C302.402 254.149 300.982 251.081 301.068 247.872C301.133 244.641 302.576 241.616 305.395 238.797C308.192 235.999 311.119 234.612 314.177 234.633C317.234 234.612 320.097 235.934 322.764 238.601L322.959 238.797L318.731 243.025L318.405 242.7C317.061 241.355 315.575 240.629 313.949 240.521C312.344 240.39 310.772 241.095 309.233 242.635C307.715 244.153 306.988 245.812 307.053 247.611C307.118 249.411 307.953 251.114 309.558 252.718L315.153 258.313C316.736 259.896 318.438 260.731 320.259 260.817C322.059 260.882 323.718 260.156 325.236 258.638C326.776 257.098 327.48 255.526 327.35 253.922C327.22 252.274 326.494 250.788 325.171 249.465L324.585 248.88L328.814 244.651L329.269 245.107C331.936 247.774 333.27 250.647 333.27 253.727C333.27 256.762 331.871 259.679 329.074 262.476ZM350.853 240.698C347.99 243.56 344.933 245.056 341.68 245.186C338.406 245.295 335.305 243.885 332.377 240.958L326.913 235.493C323.985 232.566 322.587 229.476 322.717 226.223C322.825 222.949 324.311 219.88 327.173 217.018C330.035 214.156 333.104 212.67 336.378 212.562C339.631 212.432 342.721 213.83 345.648 216.758L351.113 222.222C354.04 225.15 355.45 228.251 355.341 231.525C355.211 234.778 353.715 237.835 350.853 240.698ZM347.014 236.86C348.619 235.255 349.4 233.542 349.356 231.72C349.313 229.899 348.511 228.207 346.949 226.646L341.225 220.921C339.663 219.36 337.972 218.558 336.15 218.514C334.329 218.471 332.616 219.252 331.011 220.856C329.428 222.439 328.648 224.152 328.669 225.996C328.713 227.817 329.515 229.508 331.076 231.07L336.801 236.794C338.362 238.356 340.054 239.158 341.875 239.201C343.718 239.223 345.432 238.443 347.014 236.86ZM373.419 218.131C371.554 219.996 369.614 221.265 367.597 221.937C365.58 222.566 363.585 222.609 361.612 222.067C359.639 221.481 357.785 220.321 356.05 218.587L341.283 203.819L345.576 199.526L360.474 214.423C361.861 215.811 363.347 216.516 364.93 216.537C366.534 216.537 368.085 215.789 369.581 214.293C371.077 212.797 371.815 211.257 371.793 209.674C371.793 208.069 371.099 206.573 369.711 205.185L354.814 190.288L359.107 185.995L373.875 200.762C375.609 202.497 376.759 204.361 377.322 206.356C377.886 208.308 377.843 210.303 377.192 212.341C376.542 214.336 375.284 216.266 373.419 218.131ZM386.686 203.953L363.917 181.185L373.285 171.817C374.716 170.386 376.267 169.421 377.936 168.922C379.606 168.38 381.265 168.326 382.913 168.759C384.583 169.171 386.133 170.093 387.564 171.524L388.02 171.98C389.429 173.389 390.34 174.95 390.752 176.663C391.164 178.333 391.11 180.014 390.589 181.705C390.069 183.353 389.115 184.871 387.727 186.259L382.653 191.333L390.98 199.66L386.686 203.953ZM378.75 187.43L383.401 182.778C384.42 181.759 384.962 180.653 385.027 179.461C385.092 178.268 384.637 177.184 383.661 176.208L383.336 175.883C382.36 174.907 381.276 174.452 380.083 174.517C378.891 174.582 377.785 175.124 376.765 176.143L372.114 180.794L378.75 187.43ZM416.27 175.28C413.408 178.143 410.35 179.639 407.097 179.769C403.823 179.878 400.722 178.468 397.795 175.541L392.33 170.076C389.403 167.149 388.004 164.059 388.134 160.806C388.243 157.532 389.728 154.463 392.59 151.601C395.453 148.739 398.521 147.253 401.795 147.145C405.048 147.015 408.138 148.413 411.066 151.341L416.53 156.805C419.458 159.733 420.867 162.834 420.759 166.108C420.628 169.361 419.132 172.418 416.27 175.28ZM412.432 171.442C414.036 169.838 414.817 168.125 414.774 166.303C414.73 164.482 413.928 162.79 412.367 161.229L406.642 155.504C405.081 153.943 403.389 153.141 401.568 153.097C399.746 153.054 398.033 153.834 396.428 155.439C394.845 157.022 394.065 158.735 394.087 160.578C394.13 162.4 394.932 164.091 396.494 165.653L402.218 171.377C403.78 172.939 405.471 173.741 407.292 173.784C409.136 173.806 410.849 173.025 412.432 171.442ZM429.599 161.041L406.83 138.272L414.994 130.108L439.357 145.428L439.942 144.842L420.101 125.001L424.329 120.772L447.098 143.541L438.934 151.706L414.571 136.385L413.986 136.971L433.827 156.812L429.599 161.041Z" fill="white"/>
<path opacity="0.1" d="M233.074 438.476C230.255 441.295 227.241 442.748 224.032 442.835C220.801 442.9 217.721 441.469 214.794 438.541L209.329 433.077C206.402 430.149 204.982 427.081 205.068 423.872C205.133 420.641 206.576 417.616 209.395 414.797C212.192 411.999 215.119 410.612 218.177 410.633C221.234 410.612 224.097 411.934 226.764 414.601L226.959 414.797L222.731 419.025L222.405 418.7C221.061 417.355 219.575 416.629 217.949 416.521C216.344 416.39 214.772 417.095 213.233 418.635C211.715 420.153 210.988 421.812 211.053 423.611C211.118 425.411 211.953 427.114 213.558 428.718L219.153 434.313C220.736 435.896 222.438 436.731 224.259 436.817C226.059 436.882 227.718 436.156 229.236 434.638C230.776 433.098 231.48 431.526 231.35 429.922C231.22 428.274 230.494 426.788 229.171 425.465L228.585 424.88L232.814 420.651L233.269 421.107C235.936 423.774 237.27 426.647 237.27 429.727C237.27 432.762 235.871 435.679 233.074 438.476ZM254.853 416.698C251.99 419.56 248.933 421.056 245.68 421.186C242.406 421.295 239.305 419.885 236.377 416.958L230.913 411.493C227.985 408.566 226.587 405.476 226.717 402.223C226.825 398.949 228.311 395.88 231.173 393.018C234.035 390.156 237.104 388.67 240.378 388.562C243.631 388.432 246.721 389.83 249.648 392.758L255.113 398.222C258.04 401.15 259.45 404.251 259.341 407.525C259.211 410.778 257.715 413.835 254.853 416.698ZM251.014 412.86C252.619 411.255 253.4 409.542 253.356 407.72C253.313 405.899 252.511 404.207 250.949 402.646L245.225 396.921C243.663 395.36 241.972 394.558 240.15 394.514C238.329 394.471 236.616 395.252 235.011 396.856C233.428 398.439 232.648 400.152 232.669 401.996C232.713 403.817 233.515 405.508 235.076 407.07L240.801 412.794C242.362 414.356 244.054 415.158 245.875 415.201C247.718 415.223 249.432 414.443 251.014 412.86ZM277.419 394.131C275.554 395.996 273.614 397.265 271.597 397.937C269.58 398.566 267.585 398.609 265.612 398.067C263.639 397.481 261.785 396.321 260.05 394.587L245.283 379.819L249.576 375.526L264.474 390.423C265.861 391.811 267.347 392.516 268.93 392.537C270.534 392.537 272.085 391.789 273.581 390.293C275.077 388.797 275.815 387.257 275.793 385.674C275.793 384.069 275.099 382.573 273.711 381.185L258.814 366.288L263.107 361.995L277.875 376.762C279.609 378.497 280.759 380.361 281.322 382.356C281.886 384.308 281.843 386.303 281.192 388.341C280.542 390.336 279.284 392.266 277.419 394.131ZM290.686 379.953L267.917 357.185L277.285 347.817C278.716 346.386 280.267 345.421 281.936 344.922C283.606 344.38 285.265 344.326 286.913 344.759C288.583 345.171 290.133 346.093 291.564 347.524L292.02 347.98C293.429 349.389 294.34 350.95 294.752 352.663C295.164 354.333 295.11 356.014 294.589 357.705C294.069 359.353 293.115 360.871 291.727 362.259L286.653 367.333L294.98 375.66L290.686 379.953ZM282.75 363.43L287.401 358.778C288.42 357.759 288.962 356.653 289.027 355.461C289.092 354.268 288.637 353.184 287.661 352.208L287.336 351.883C286.36 350.907 285.276 350.452 284.083 350.517C282.891 350.582 281.785 351.124 280.765 352.143L276.114 356.794L282.75 363.43ZM320.27 351.28C317.408 354.143 314.35 355.639 311.097 355.769C307.823 355.878 304.722 354.468 301.795 351.541L296.33 346.076C293.403 343.149 292.004 340.059 292.134 336.806C292.243 333.532 293.728 330.463 296.59 327.601C299.453 324.739 302.521 323.253 305.795 323.145C309.048 323.015 312.138 324.413 315.066 327.341L320.53 332.805C323.458 335.733 324.867 338.834 324.759 342.108C324.628 345.361 323.132 348.418 320.27 351.28ZM316.432 347.442C318.036 345.838 318.817 344.125 318.774 342.303C318.73 340.482 317.928 338.79 316.367 337.229L310.642 331.504C309.081 329.943 307.389 329.141 305.568 329.097C303.746 329.054 302.033 329.834 300.428 331.439C298.845 333.022 298.065 334.735 298.087 336.578C298.13 338.4 298.932 340.091 300.494 341.653L306.218 347.377C307.78 348.939 309.471 349.741 311.292 349.784C313.136 349.806 314.849 349.025 316.432 347.442ZM333.599 337.041L310.83 314.272L318.994 306.108L343.357 321.428L343.942 320.842L324.101 301.001L328.329 296.772L351.098 319.541L342.934 327.706L318.571 312.385L317.986 312.971L337.827 332.812L333.599 337.041Z" fill="white"/>
<path opacity="0.1" d="M369.074 302.476C366.255 305.295 363.241 306.748 360.032 306.835C356.801 306.9 353.721 305.469 350.794 302.541L345.329 297.077C342.402 294.149 340.982 291.081 341.068 287.872C341.133 284.641 342.576 281.616 345.395 278.797C348.192 275.999 351.119 274.612 354.177 274.633C357.234 274.612 360.097 275.934 362.764 278.601L362.959 278.797L358.731 283.025L358.405 282.7C357.061 281.355 355.575 280.629 353.949 280.521C352.344 280.39 350.772 281.095 349.233 282.635C347.715 284.153 346.988 285.812 347.053 287.611C347.118 289.411 347.953 291.114 349.558 292.718L355.153 298.313C356.736 299.896 358.438 300.731 360.259 300.817C362.059 300.882 363.718 300.156 365.236 298.638C366.776 297.098 367.48 295.526 367.35 293.922C367.22 292.274 366.494 290.788 365.171 289.465L364.585 288.88L368.814 284.651L369.269 285.107C371.936 287.774 373.27 290.647 373.27 293.727C373.27 296.762 371.871 299.679 369.074 302.476ZM390.853 280.698C387.99 283.56 384.933 285.056 381.68 285.186C378.406 285.295 375.305 283.885 372.377 280.958L366.913 275.493C363.985 272.566 362.587 269.476 362.717 266.223C362.825 262.949 364.311 259.88 367.173 257.018C370.035 254.156 373.104 252.67 376.378 252.562C379.631 252.432 382.721 253.83 385.648 256.758L391.113 262.222C394.04 265.15 395.45 268.251 395.341 271.525C395.211 274.778 393.715 277.835 390.853 280.698ZM387.014 276.86C388.619 275.255 389.4 273.542 389.356 271.72C389.313 269.899 388.511 268.207 386.949 266.646L381.225 260.921C379.663 259.36 377.972 258.558 376.15 258.514C374.329 258.471 372.616 259.252 371.011 260.856C369.428 262.439 368.648 264.152 368.669 265.996C368.713 267.817 369.515 269.508 371.076 271.07L376.801 276.794C378.362 278.356 380.054 279.158 381.875 279.201C383.718 279.223 385.432 278.443 387.014 276.86ZM413.419 258.131C411.554 259.996 409.614 261.265 407.597 261.937C405.58 262.566 403.585 262.609 401.612 262.067C399.639 261.481 397.785 260.321 396.05 258.587L381.283 243.819L385.576 239.526L400.474 254.423C401.861 255.811 403.347 256.516 404.93 256.537C406.534 256.537 408.085 255.789 409.581 254.293C411.077 252.797 411.815 251.257 411.793 249.674C411.793 248.069 411.099 246.573 409.711 245.185L394.814 230.288L399.107 225.995L413.875 240.762C415.609 242.497 416.759 244.361 417.322 246.356C417.886 248.308 417.843 250.303 417.192 252.341C416.542 254.336 415.284 256.266 413.419 258.131ZM426.686 243.953L403.917 221.185L413.285 211.817C414.716 210.386 416.267 209.421 417.936 208.922C419.606 208.38 421.265 208.326 422.913 208.759C424.583 209.171 426.133 210.093 427.564 211.524L428.02 211.98C429.429 213.389 430.34 214.95 430.752 216.663C431.164 218.333 431.11 220.014 430.589 221.705C430.069 223.353 429.115 224.871 427.727 226.259L422.653 231.333L430.98 239.66L426.686 243.953ZM418.75 227.43L423.401 222.778C424.42 221.759 424.962 220.653 425.027 219.461C425.092 218.268 424.637 217.184 423.661 216.208L423.336 215.883C422.36 214.907 421.276 214.452 420.083 214.517C418.891 214.582 417.785 215.124 416.765 216.143L412.114 220.794L418.75 227.43ZM456.27 215.28C453.408 218.143 450.35 219.639 447.097 219.769C443.823 219.878 440.722 218.468 437.795 215.541L432.33 210.076C429.403 207.149 428.004 204.059 428.134 200.806C428.243 197.532 429.728 194.463 432.59 191.601C435.453 188.739 438.521 187.253 441.795 187.145C445.048 187.015 448.138 188.413 451.066 191.341L456.53 196.805C459.458 199.733 460.867 202.834 460.759 206.108C460.628 209.361 459.132 212.418 456.27 215.28ZM452.432 211.442C454.036 209.838 454.817 208.125 454.774 206.303C454.73 204.482 453.928 202.79 452.367 201.229L446.642 195.504C445.081 193.943 443.389 193.141 441.568 193.097C439.746 193.054 438.033 193.834 436.428 195.439C434.845 197.022 434.065 198.735 434.087 200.578C434.13 202.4 434.932 204.091 436.494 205.653L442.218 211.377C443.78 212.939 445.471 213.741 447.292 213.784C449.136 213.806 450.849 213.025 452.432 211.442ZM469.599 201.041L446.83 178.272L454.994 170.108L479.357 185.428L479.942 184.842L460.101 165.001L464.329 160.772L487.098 183.541L478.934 191.706L454.571 176.385L453.986 176.971L473.827 196.812L469.599 201.041Z" fill="white"/>
</svg>
