<svg width="529" height="194" viewBox="0 0 529 194" fill="none" xmlns="http://www.w3.org/2000/svg">
<g filter="url(#filter0_d_792_10416)">
<path d="M43 93C43 110.204 27.33 124.15 8 124.15L8 179L11 182H344.02L354.5 172.655V14.1638L343.29 4L11 4L8 7V61.85C27.33 61.85 43 75.7963 43 93Z" fill="#601E8D"/>
<path d="M354.5 172.655L344.02 182H11L8 179L8 124.15C27.33 124.15 43 110.204 43 93C43 75.7963 27.33 61.85 8 61.85V7L11 4L343.29 4L354.5 14.1638M354.5 172.655L365.043 182H518L521 179V124.15C501.67 124.15 486 110.204 486 93C486 75.7963 501.67 61.85 521 61.85V7L518 4H366.132L354.5 14.1638M354.5 172.655V14.1638" stroke="#B1B1B1" stroke-width="0.5" stroke-linejoin="round"/>
</g>
<path d="M43 93C43 110.204 27.33 124.15 8 124.15L8 179L11 182H344.02L354.5 172.655V14.1638L343.29 4L11 4L8 7V61.85C27.33 61.85 43 75.7963 43 93Z" fill="#601E8D"/>
<path d="M521 124.15C501.67 124.15 486 110.204 486 93C486 75.7963 501.67 61.85 521 61.85V7L518 4H366.132L354.5 14.1638V172.655L365.043 182H518L521 179V124.15Z" fill="white"/>
<path d="M354.5 172.655L344.02 182H11L8 179L8 124.15C27.33 124.15 43 110.204 43 93C43 75.7963 27.33 61.85 8 61.85V7L11 4L343.29 4L354.5 14.1638M354.5 172.655L365.043 182H518L521 179V124.15C501.67 124.15 486 110.204 486 93C486 75.7963 501.67 61.85 521 61.85V7L518 4H366.132L354.5 14.1638M354.5 172.655V14.1638" stroke="#B1B1B1" stroke-width="0.5" stroke-linejoin="round"/>
<g clip-path="url(#clip0_792_10416)">
<g opacity="0.1">
<path d="M39.621 60.5291C37.7561 62.3939 35.8153 63.6625 33.7986 64.3347C31.782 64.9636 29.787 65.0069 27.8137 64.4648C25.8404 63.8793 23.9864 62.7192 22.2516 60.9844L7.48438 46.2172L11.7779 41.9237L26.6753 56.821C28.0631 58.2088 29.5485 58.9136 31.1314 58.9352C32.7361 58.9352 34.2866 58.1871 35.7828 56.6909C37.279 55.1947 38.0163 53.6551 37.9946 52.0721C37.9946 50.4674 37.3007 48.9712 35.9129 47.5834L21.0156 32.686L25.3091 28.3925L40.0763 43.1597C41.8111 44.8945 42.9604 46.7593 43.5242 48.7543C44.088 50.7059 44.0446 52.7009 43.3941 54.7393C42.7435 56.7343 41.4858 58.6642 39.621 60.5291Z" fill="white"/>
<path d="M52.8879 46.3514L30.119 23.5826L39.4868 14.2148C40.918 12.7836 42.4684 11.8187 44.1381 11.3199C45.8079 10.7778 47.4667 10.7236 49.1148 11.1573C50.7845 11.5693 52.3349 12.4909 53.7661 13.9221L54.2215 14.3774C55.631 15.7869 56.5417 17.3482 56.9537 19.0613C57.3657 20.731 57.3115 22.4116 56.7911 24.103C56.2707 25.751 55.3166 27.2689 53.9287 28.6568L48.8545 33.731L57.1814 42.0578L52.8879 46.3514ZM44.9513 29.8277L49.6027 25.1764C50.6218 24.1572 51.1639 23.0513 51.229 21.8586C51.2941 20.666 50.8387 19.5818 49.8629 18.6059L49.5376 18.2807C48.5618 17.3049 47.4776 16.8495 46.2849 16.9145C45.0923 16.9796 43.9863 17.5217 42.9672 18.5409L38.3158 23.1922L44.9513 29.8277Z" fill="white"/>
<path d="M79.2432 100.906C77.3783 102.771 75.4376 104.04 73.4209 104.712C71.4042 105.341 69.4092 105.384 67.4359 104.842C65.4626 104.257 63.6086 103.097 61.8738 101.362L47.1066 86.5947L51.4002 82.3011L66.2975 97.1984C67.6853 98.5862 69.1707 99.291 70.7537 99.3127C72.3583 99.3127 73.9088 98.5646 75.405 97.0683C76.9013 95.5721 77.6385 94.0325 77.6169 92.4495C77.6169 90.8448 76.923 89.3486 75.5351 87.9608L60.6378 73.0635L64.9314 68.7699L79.6986 83.5371C81.4333 85.2719 82.5826 87.1368 83.1464 89.1318C83.7102 91.0834 83.6669 93.0784 83.0163 95.1167C82.3658 97.1117 81.1081 99.0416 79.2432 100.906Z" fill="white"/>
<path d="M92.5101 86.7288L69.7413 63.96L79.109 54.5922C80.5402 53.1611 82.0907 52.1961 83.7604 51.6973C85.4301 51.1552 87.089 51.101 88.737 51.5347C90.4067 51.9467 91.9572 52.8683 93.3883 54.2995L93.8437 54.7549C95.2532 56.1644 96.164 57.7257 96.576 59.4387C96.988 61.1085 96.9338 62.789 96.4133 64.4804C95.8929 66.1284 94.9388 67.6464 93.551 69.0342L88.4768 74.1084L96.8037 82.4353L92.5101 86.7288ZM84.5736 70.2052L89.2249 65.5538C90.2441 64.5346 90.7862 63.4287 90.8512 62.2361C90.9163 61.0434 90.4609 59.9592 89.4851 58.9834L89.1598 58.6581C88.184 57.6823 87.0998 57.2269 85.9072 57.292C84.7145 57.357 83.6086 57.8991 82.5894 58.9183L77.9381 63.5697L84.5736 70.2052Z" fill="white"/>
<path d="M122.094 58.0558C119.231 60.9182 116.174 62.4145 112.921 62.5446C109.647 62.653 106.546 61.2435 103.619 58.3161L98.154 52.8515C95.2266 49.9241 93.828 46.8341 93.9581 43.5814C94.0665 40.307 95.5519 37.2386 98.4143 34.3763C101.277 31.5139 104.345 30.0285 107.619 29.9201C110.872 29.79 113.962 31.1886 116.89 34.116L122.354 39.5806C125.281 42.508 126.691 45.6089 126.583 48.8833C126.452 52.1359 124.956 55.1935 122.094 58.0558ZM118.256 54.2177C119.86 52.613 120.641 50.8999 120.598 49.0784C120.554 47.2569 119.752 45.5655 118.191 44.0042L112.466 38.2795C110.905 36.7182 109.213 35.9159 107.392 35.8725C105.57 35.8291 103.857 36.6098 102.252 38.2144C100.669 39.7974 99.8888 41.5105 99.9105 43.3537C99.9539 45.1752 100.756 46.8666 102.317 48.4279L108.042 54.1526C109.604 55.7139 111.295 56.5162 113.116 56.5596C114.96 56.5813 116.673 55.8006 118.256 54.2177Z" fill="white"/>
<path d="M135.423 43.8162L112.654 21.0473L120.818 12.8831L145.181 28.2033L145.766 27.6178L125.925 7.77635L130.153 3.54785L152.922 26.3167L144.758 34.4809L120.395 19.1608L119.81 19.7463L139.651 39.5877L135.423 43.8162Z" fill="white"/>
<path d="M96.6766 163.473C93.8143 166.335 90.7567 167.832 87.5041 167.962C84.2297 168.07 81.1288 166.661 78.2014 163.733L72.7368 158.269C69.8094 155.341 68.4108 152.251 68.5409 148.999C68.6493 145.724 70.1347 142.656 72.997 139.793C75.8594 136.931 78.9278 135.446 82.2022 135.337C85.4549 135.207 88.5449 136.606 91.4723 139.533L96.9369 144.998C99.8643 147.925 101.274 151.026 101.165 154.3C101.035 157.553 99.539 160.611 96.6766 163.473ZM92.8385 159.635C94.4431 158.03 95.2238 156.317 95.1804 154.496C95.137 152.674 94.3347 150.983 92.7734 149.421L87.0487 143.697C85.4874 142.135 83.796 141.333 81.9745 141.29C80.153 141.246 78.4399 142.027 76.8352 143.632C75.2523 145.215 74.4716 146.928 74.4933 148.771C74.5367 150.592 75.339 152.284 76.9003 153.845L82.625 159.57C84.1863 161.131 85.8777 161.933 87.6992 161.977C89.5424 161.998 91.2555 161.218 92.8385 159.635Z" fill="white"/>
<path d="M119.243 140.906C117.378 142.771 115.438 144.04 113.421 144.712C111.404 145.341 109.409 145.384 107.436 144.842C105.463 144.257 103.609 143.097 101.874 141.362L87.1066 126.595L91.4002 122.301L106.297 137.198C107.685 138.586 109.171 139.291 110.754 139.313C112.358 139.313 113.909 138.565 115.405 137.068C116.901 135.572 117.639 134.032 117.617 132.449C117.617 130.845 116.923 129.349 115.535 127.961L100.638 113.063L104.931 108.77L119.699 123.537C121.433 125.272 122.583 127.137 123.146 129.132C123.71 131.083 123.667 133.078 123.016 135.117C122.366 137.112 121.108 139.042 119.243 140.906Z" fill="white"/>
<path d="M132.51 126.729L109.741 103.96L119.109 94.5922C120.54 93.161 122.091 92.1961 123.76 91.6973C125.43 91.1552 127.089 91.101 128.737 91.5347C130.407 91.9467 131.957 92.8683 133.388 94.2995L133.844 94.7549C135.253 96.1644 136.164 97.7256 136.576 99.4387C136.988 101.108 136.934 102.789 136.413 104.48C135.893 106.128 134.939 107.646 133.551 109.034L128.477 114.108L136.804 122.435L132.51 126.729ZM124.574 110.205L129.225 105.554C130.244 104.535 130.786 103.429 130.851 102.236C130.916 101.043 130.461 99.9592 129.485 98.9834L129.16 98.6581C128.184 97.6823 127.1 97.2269 125.907 97.292C124.715 97.357 123.609 97.8991 122.589 98.9183L117.938 103.57L124.574 110.205Z" fill="white"/>
<path d="M162.094 98.0558C159.231 100.918 156.174 102.414 152.921 102.545C149.647 102.653 146.546 101.243 143.619 98.316L138.154 92.8515C135.227 89.9241 133.828 86.834 133.958 83.5814C134.066 80.307 135.552 77.2386 138.414 74.3762C141.277 71.5139 144.345 70.0285 147.619 69.9201C150.872 69.7899 153.962 71.1886 156.89 74.116L162.354 79.5805C165.281 82.508 166.691 85.6089 166.583 88.8832C166.452 92.1359 164.956 95.1935 162.094 98.0558ZM158.256 94.2177C159.86 92.613 160.641 90.8999 160.598 89.0784C160.554 87.2569 159.752 85.5655 158.191 84.0042L152.466 78.2795C150.905 76.7182 149.213 75.9158 147.392 75.8725C145.57 75.8291 143.857 76.6098 142.252 78.2144C140.669 79.7974 139.889 81.5105 139.91 83.3537C139.954 85.1752 140.756 86.8666 142.317 88.4279L148.042 94.1526C149.604 95.7139 151.295 96.5162 153.116 96.5596C154.96 96.5813 156.673 95.8006 158.256 94.2177Z" fill="white"/>
<path d="M175.423 83.8162L152.654 61.0473L160.818 52.8831L185.181 68.2032L185.766 67.6178L165.925 47.7763L170.153 43.5478L192.922 66.3167L184.758 74.4809L160.395 59.1608L159.81 59.7462L179.651 79.5877L175.423 83.8162Z" fill="white"/>
<path d="M210.799 49.3509C207.98 52.1699 204.966 53.6227 201.756 53.7095C198.525 53.7745 195.446 52.3434 192.519 49.4159L187.054 43.9514C184.127 41.024 182.707 37.9556 182.793 34.7463C182.858 31.5153 184.3 28.4903 187.119 25.6713C189.917 22.874 192.844 21.4862 195.902 21.5078C198.959 21.4862 201.822 22.8089 204.489 25.4761L204.684 25.6713L200.455 29.8998L200.13 29.5745C198.786 28.2301 197.3 27.5036 195.674 27.3952C194.069 27.2651 192.497 27.9699 190.958 29.5095C189.44 31.0274 188.713 32.6863 188.778 34.4861C188.843 36.2859 189.678 37.9881 191.283 39.5928L196.877 45.1874C198.46 46.7704 200.163 47.6053 201.984 47.692C203.784 47.7571 205.443 47.0306 206.961 45.5127C208.5 43.9731 209.205 42.401 209.075 40.7963C208.945 39.1483 208.218 37.6629 206.896 36.3401L206.31 35.7546L210.539 31.5261L210.994 31.9815C213.661 34.6487 214.995 37.5219 214.995 40.6011C214.995 43.637 213.596 46.5536 210.799 49.3509Z" fill="white"/>
<path d="M172.51 166.729L149.741 143.96L159.109 134.592C160.54 133.161 162.091 132.196 163.76 131.697C165.43 131.155 167.089 131.101 168.737 131.535C170.407 131.947 171.957 132.868 173.388 134.299L173.844 134.755C175.253 136.164 176.164 137.726 176.576 139.439C176.988 141.108 176.934 142.789 176.413 144.48C175.893 146.128 174.939 147.646 173.551 149.034L168.477 154.108L176.804 162.435L172.51 166.729ZM164.573 150.205L169.225 145.554C170.244 144.535 170.786 143.429 170.851 142.236C170.916 141.043 170.461 139.959 169.485 138.983L169.16 138.658C168.184 137.682 167.1 137.227 165.907 137.292C164.714 137.357 163.608 137.899 162.589 138.918L157.938 143.57L164.573 150.205Z" fill="white"/>
<path d="M202.094 138.056C199.231 140.918 196.174 142.414 192.921 142.545C189.647 142.653 186.546 141.243 183.618 138.316L178.154 132.852C175.226 129.924 173.828 126.834 173.958 123.581C174.066 120.307 175.552 117.239 178.414 114.376C181.276 111.514 184.345 110.028 187.619 109.92C190.872 109.79 193.962 111.189 196.889 114.116L202.354 119.581C205.281 122.508 206.691 125.609 206.582 128.883C206.452 132.136 204.956 135.193 202.094 138.056ZM198.256 134.218C199.86 132.613 200.641 130.9 200.597 129.078C200.554 127.257 199.752 125.566 198.19 124.004L192.466 118.279C190.904 116.718 189.213 115.916 187.392 115.872C185.57 115.829 183.857 116.61 182.252 118.214C180.669 119.797 179.889 121.51 179.91 123.354C179.954 125.175 180.756 126.867 182.317 128.428L188.042 134.153C189.603 135.714 191.295 136.516 193.116 136.56C194.959 136.581 196.673 135.801 198.256 134.218Z" fill="white"/>
<path d="M215.423 123.816L192.654 101.047L200.818 92.8831L225.181 108.203L225.766 107.618L205.925 87.7763L210.153 83.5478L232.922 106.317L224.758 114.481L200.395 99.1608L199.81 99.7462L219.651 119.588L215.423 123.816Z" fill="white"/>
<path d="M250.799 89.3509C247.98 92.1699 244.966 93.6228 241.756 93.7095C238.525 93.7746 235.446 92.3434 232.519 89.4159L227.054 83.9514C224.127 81.024 222.707 77.9556 222.793 74.7463C222.858 71.5153 224.3 68.4903 227.119 65.6713C229.917 62.874 232.844 61.4862 235.902 61.5079C238.959 61.4862 241.822 62.8089 244.489 65.4761L244.684 65.6713L240.455 69.8998L240.13 69.5745C238.786 68.2301 237.3 67.5036 235.674 67.3952C234.069 67.2651 232.497 67.9699 230.958 69.5095C229.44 71.0274 228.713 72.6863 228.778 74.4861C228.843 76.2859 229.678 77.9882 231.283 79.5928L236.877 85.1874C238.46 86.7704 240.163 87.6053 241.984 87.692C243.784 87.7571 245.443 87.0306 246.961 85.5127C248.5 83.9731 249.205 82.401 249.075 80.7963C248.945 79.1483 248.218 77.6629 246.896 76.3401L246.31 75.7546L250.539 71.5261L250.994 71.9815C253.661 74.6487 254.995 77.5219 254.995 80.6012C254.995 83.637 253.596 86.5536 250.799 89.3509Z" fill="white"/>
<path d="M272.577 67.5723C269.715 70.4347 266.658 71.931 263.405 72.0611C260.13 72.1695 257.03 70.76 254.102 67.8326L248.638 62.368C245.71 59.4406 244.312 56.3506 244.442 53.0979C244.55 49.8235 246.036 46.7551 248.898 43.8927C251.76 41.0304 254.829 39.545 258.103 39.4366C261.356 39.3065 264.446 40.7051 267.373 43.6325L272.838 49.0971C275.765 52.0245 277.175 55.1254 277.066 58.3997C276.936 61.6524 275.44 64.71 272.577 67.5723ZM268.739 63.7342C270.344 62.1295 271.125 60.4164 271.081 58.5949C271.038 56.7734 270.236 55.082 268.674 53.5207L262.949 47.796C261.388 46.2347 259.697 45.4324 257.875 45.389C256.054 45.3456 254.341 46.1263 252.736 47.7309C251.153 49.3139 250.372 51.027 250.394 52.8702C250.437 54.6917 251.24 56.3831 252.801 57.9444L258.526 63.6691C260.087 65.2304 261.779 66.0327 263.6 66.0761C265.443 66.0978 267.156 65.3171 268.739 63.7342Z" fill="white"/>
<path d="M295.144 45.0058C293.279 46.8707 291.338 48.1392 289.322 48.8114C287.305 49.4403 285.31 49.4837 283.337 48.9415C281.363 48.3561 279.509 47.1959 277.775 45.4612L263.007 30.6939L267.301 26.4004L282.198 41.2977C283.586 42.6855 285.072 43.3903 286.655 43.412C288.259 43.412 289.81 42.6638 291.306 41.1676C292.802 39.6714 293.539 38.1318 293.518 36.5488C293.518 34.9441 292.824 33.4479 291.436 32.0601L276.539 17.1627L280.832 12.8692L295.599 27.6364C297.334 29.3712 298.483 31.2361 299.047 33.231C299.611 35.1827 299.568 37.1776 298.917 39.216C298.267 41.211 297.009 43.1409 295.144 45.0058Z" fill="white"/>
<path d="M255.423 163.816L232.654 141.047L240.818 132.883L265.181 148.203L265.766 147.618L245.925 127.776L250.153 123.548L272.922 146.317L264.758 154.481L240.395 139.161L239.81 139.746L259.651 159.588L255.423 163.816Z" fill="white"/>
<path d="M290.799 129.351C287.98 132.17 284.966 133.623 281.757 133.709C278.526 133.774 275.446 132.343 272.519 129.416L267.055 123.951C264.127 121.024 262.707 117.956 262.794 114.746C262.859 111.515 264.301 108.49 267.12 105.671C269.917 102.874 272.844 101.486 275.902 101.508C278.959 101.486 281.822 102.809 284.489 105.476L284.684 105.671L280.456 109.9L280.13 109.574C278.786 108.23 277.301 107.504 275.674 107.395C274.07 107.265 272.497 107.97 270.958 109.509C269.44 111.027 268.713 112.686 268.778 114.486C268.844 116.286 269.678 117.988 271.283 119.593L276.878 125.187C278.461 126.77 280.163 127.605 281.984 127.692C283.784 127.757 285.443 127.031 286.961 125.513C288.501 123.973 289.205 122.401 289.075 120.796C288.945 119.148 288.219 117.663 286.896 116.34L286.31 115.755L290.539 111.526L290.994 111.981C293.662 114.649 294.995 117.522 294.995 120.601C294.995 123.637 293.596 126.553 290.799 129.351Z" fill="white"/>
<path d="M312.578 107.572C309.715 110.435 306.658 111.931 303.405 112.061C300.131 112.169 297.03 110.76 294.102 107.832L288.638 102.368C285.71 99.4405 284.312 96.3504 284.442 93.0977C284.55 89.8234 286.036 86.755 288.898 83.8926C291.76 81.0303 294.829 79.5449 298.103 79.4364C301.356 79.3063 304.446 80.705 307.373 83.6324L312.838 89.0969C315.765 92.0244 317.175 95.1253 317.066 98.3996C316.936 101.652 315.44 104.71 312.578 107.572ZM308.74 103.734C310.344 102.129 311.125 100.416 311.081 98.5948C311.038 96.7733 310.236 95.0819 308.674 93.5206L302.95 87.7959C301.388 86.2346 299.697 85.4322 297.876 85.3889C296.054 85.3455 294.341 86.1262 292.736 87.7308C291.153 89.3138 290.373 91.0269 290.394 92.8701C290.438 94.6916 291.24 96.383 292.801 97.9443L298.526 103.669C300.087 105.23 301.779 106.033 303.6 106.076C305.443 106.098 307.157 105.317 308.74 103.734Z" fill="white"/>
<path d="M335.144 85.0057C333.279 86.8705 331.339 88.1391 329.322 88.8113C327.305 89.4402 325.31 89.4835 323.337 88.9414C321.364 88.3559 319.51 87.1958 317.775 85.461L303.008 70.6938L307.301 66.4003L322.199 81.2976C323.586 82.6854 325.072 83.3902 326.655 83.4118C328.259 83.4118 329.81 82.6637 331.306 81.1675C332.802 79.6712 333.54 78.1316 333.518 76.5487C333.518 74.944 332.824 73.4478 331.436 72.06L316.539 57.1626L320.832 52.8691L335.6 67.6363C337.334 69.3711 338.484 71.2359 339.048 73.2309C339.611 75.1825 339.568 77.1775 338.917 79.2159C338.267 81.2109 337.009 83.1408 335.144 85.0057Z" fill="white"/>
<path d="M348.411 70.828L325.642 48.0592L335.01 38.6914C336.441 37.2602 337.992 36.2953 339.661 35.7965C341.331 35.2544 342.99 35.2002 344.638 35.6339C346.308 36.0459 347.858 36.9675 349.289 38.3987L349.745 38.854C351.154 40.2635 352.065 41.8248 352.477 43.5379C352.889 45.2076 352.835 46.8882 352.314 48.5796C351.794 50.2276 350.84 51.7455 349.452 53.1334L344.378 58.2076L352.705 66.5344L348.411 70.828ZM340.475 54.3043L345.126 49.653C346.145 48.6338 346.687 47.5279 346.752 46.3352C346.817 45.1426 346.362 44.0583 345.386 43.0825L345.061 42.7573C344.085 41.7815 343.001 41.3261 341.808 41.3911C340.616 41.4562 339.51 41.9983 338.49 43.0175L333.839 47.6688L340.475 54.3043Z" fill="white"/>
<path d="M330.799 169.351C327.98 172.17 324.966 173.623 321.757 173.709C318.526 173.774 315.446 172.343 312.519 169.416L307.055 163.951C304.127 161.024 302.707 157.956 302.793 154.746C302.859 151.515 304.301 148.49 307.12 145.671C309.917 142.874 312.844 141.486 315.902 141.508C318.959 141.486 321.822 142.809 324.489 145.476L324.684 145.671L320.456 149.9L320.13 149.574C318.786 148.23 317.301 147.504 315.674 147.395C314.07 147.265 312.497 147.97 310.958 149.509C309.44 151.027 308.713 152.686 308.778 154.486C308.844 156.286 309.678 157.988 311.283 159.593L316.878 165.187C318.461 166.77 320.163 167.605 321.984 167.692C323.784 167.757 325.443 167.031 326.961 165.513C328.501 163.973 329.205 162.401 329.075 160.796C328.945 159.148 328.219 157.663 326.896 156.34L326.31 155.755L330.539 151.526L330.994 151.981C333.662 154.649 334.995 157.522 334.995 160.601C334.995 163.637 333.596 166.553 330.799 169.351Z" fill="white"/>
<path d="M82.4716 17.6784C79.6092 20.5408 76.5517 22.037 73.299 22.1671C70.0246 22.2756 66.9237 20.8661 63.9963 17.9386L58.5318 12.4741C55.6044 9.5467 54.2057 6.45664 54.3358 3.20395L60.2883 2.97626C60.3316 4.79776 61.134 6.48916 62.6952 8.05046L68.42 13.7752C69.9813 15.3365 71.6727 16.1388 73.4942 16.1822C75.3374 16.2039 77.0505 15.4232 78.6334 13.8402C80.2381 12.2356 81.0187 10.5225 80.9754 8.70099C80.932 6.87949 80.1297 5.18809 78.5684 3.6268H85.9396C86.6754 5.20793 87.0157 6.83428 86.9603 8.50583C86.8302 11.7585 85.334 14.8161 82.4716 17.6784Z" fill="white"/>
<path d="M171.079 9.07052C168.26 11.8895 165.246 13.3424 162.037 13.4291C158.806 13.4942 155.727 12.063 152.799 9.13558L147.335 3.67106H155.922L157.158 4.90708C158.741 6.49006 160.443 7.32491 162.264 7.41165C164.064 7.4767 165.723 6.75027 167.241 5.23235C167.753 4.72041 168.173 4.20488 168.5 3.68575H174.685C174.03 5.52726 172.828 7.32219 171.079 9.07052Z" fill="white"/>
<path fill-rule="evenodd" clip-rule="evenodd" d="M232.577 27.5723C229.715 30.4347 226.658 31.9309 223.405 32.061C220.13 32.1695 217.03 30.76 214.102 27.8326L208.638 22.368C205.71 19.4406 204.312 16.3505 204.442 13.0979C204.55 9.82348 206.036 6.75511 208.898 3.89274H227.633L232.838 9.09705C235.765 12.0245 237.175 15.1254 237.066 18.3997C236.936 21.6524 235.44 24.71 232.577 27.5723ZM231.081 18.5949C231.125 20.4164 230.344 22.1295 228.739 23.7342C227.156 25.3171 225.443 26.0978 223.6 26.0761C221.779 26.0327 220.087 25.2304 218.526 23.6691L212.801 17.9444C211.24 16.3831 210.437 14.6917 210.394 12.8702C210.372 11.027 211.153 9.31389 212.736 7.73092C214.341 6.12626 216.054 5.34561 217.875 5.38898C219.697 5.43235 221.388 6.23468 222.95 7.79597L228.674 13.5207C230.236 15.082 231.038 16.7734 231.081 18.5949Z" fill="white"/>
<path d="M308.411 30.8281L285.642 8.05927L290.326 3.3754H298.132L293.839 7.66895L300.474 14.3044L305.126 9.65309C306.145 8.63391 306.687 7.528 306.752 6.33535C306.806 5.34084 306.499 4.42173 305.829 3.57801L312.477 3.53803C312.889 5.20774 312.835 6.8883 312.314 8.5797C311.794 10.2277 310.84 11.7457 309.452 13.1335L304.378 18.2077L312.704 26.5346L308.411 30.8281Z" fill="white"/>
<path fill-rule="evenodd" clip-rule="evenodd" d="M352.578 147.572C349.715 150.435 346.658 151.931 343.405 152.061C340.131 152.169 337.03 150.76 334.102 147.832L328.638 142.368C325.71 139.44 324.312 136.35 324.442 133.098C324.55 129.823 326.036 126.755 328.898 123.893C331.76 121.03 334.829 119.545 338.103 119.436C341.356 119.306 344.446 120.705 347.373 123.632L352.838 129.097C353.686 129.945 354.407 130.808 355 131.685V144.621C354.347 145.627 353.539 146.611 352.578 147.572ZM351.081 138.595C351.125 140.416 350.344 142.129 348.74 143.734C347.157 145.317 345.443 146.098 343.6 146.076C341.779 146.033 340.087 145.23 338.526 143.669L332.801 137.944C331.24 136.383 330.438 134.692 330.394 132.87C330.373 131.027 331.153 129.314 332.736 127.731C334.341 126.126 336.054 125.345 337.876 125.389C339.697 125.432 341.388 126.235 342.95 127.796L348.674 133.521C350.236 135.082 351.038 136.773 351.081 138.595Z" fill="white"/>
<path d="M71.0599 181.413C72.5995 179.874 73.3043 178.302 73.1742 176.697C73.0441 175.049 72.3176 173.564 70.9949 172.241L70.4094 171.655L74.6379 167.427L75.0933 167.882C77.7605 170.549 79.0941 173.423 79.0941 176.502C79.0941 178.607 78.4214 180.655 77.076 182.646L69.6311 182.582C70.1205 182.266 70.5968 181.877 71.0599 181.413Z" fill="white"/>
<path d="M51.1535 179.852C48.226 176.925 46.8057 173.856 46.8924 170.647C46.9575 167.416 48.3995 164.391 51.2185 161.572C54.0158 158.775 56.9432 157.387 60.0008 157.409C63.0583 157.387 65.9207 158.71 68.5879 161.377L68.783 161.572L64.5545 165.801L64.2293 165.475C62.8848 164.131 61.3994 163.404 59.7731 163.296C58.1684 163.166 56.5963 163.871 55.0567 165.41C53.5388 166.928 52.8123 168.587 52.8774 170.387C52.9424 172.187 53.7773 173.889 55.3819 175.494L60.9766 181.088C61.5685 181.68 62.177 182.167 62.8022 182.55L53.8857 182.584L51.1535 179.852Z" fill="white"/>
<path d="M34.8981 145.252C32.0791 148.071 29.0649 149.523 25.8556 149.61C22.6246 149.675 19.5454 148.244 16.618 145.317L11.1534 139.852C9.39987 138.099 8.18707 136.294 7.51504 134.44L7.50001 127.232C7.91127 126.034 8.53052 124.867 9.35776 123.731C12.9718 123.488 21.2799 122.2 25.5999 119C26.6217 119.614 27.6177 120.407 28.5879 121.377L28.783 121.572L24.5545 125.801L24.2293 125.475C22.8848 124.131 21.3994 123.404 19.7731 123.296C18.1684 123.166 16.5963 123.871 15.0567 125.41C13.5388 126.928 12.8123 128.587 12.8774 130.387C12.9424 132.187 13.7773 133.889 15.3819 135.494L20.9766 141.088C22.5596 142.671 24.2618 143.506 26.0833 143.593C27.8831 143.658 29.542 142.931 31.0599 141.413C32.5995 139.874 33.3043 138.302 33.1742 136.697C33.0441 135.049 32.3176 133.564 30.9949 132.241L30.4094 131.655L34.6379 127.427L35.0933 127.882C37.7605 130.549 39.0941 133.423 39.0941 136.502C39.0941 139.538 37.6954 142.454 34.8981 145.252Z" fill="white"/>
<path d="M141.874 181.362L127.106 166.595L131.4 162.301L146.297 177.198C147.685 178.586 149.171 179.291 150.754 179.313C152.358 179.313 153.909 178.565 155.405 177.068C156.901 175.572 157.638 174.032 157.617 172.449C157.617 170.845 156.923 169.349 155.535 167.961L140.638 153.063L144.931 148.77L159.698 163.537C161.433 165.272 162.583 167.137 163.146 169.132C163.71 171.083 163.667 173.078 163.016 175.117C162.366 177.112 161.108 179.042 159.243 180.906C158.507 181.642 157.76 182.285 157 182.836H143.556C142.983 182.402 142.422 181.911 141.874 181.362Z" fill="white"/>
<path d="M199.109 174.592C200.54 173.161 202.091 172.196 203.76 171.697C205.43 171.155 207.089 171.101 208.737 171.535C210.407 171.947 211.957 172.868 213.388 174.299L213.844 174.755C215.253 176.164 216.164 177.726 216.576 179.439C216.846 180.534 216.916 181.634 216.785 182.739H210.794C210.823 182.573 210.842 182.406 210.851 182.236C210.916 181.043 210.461 179.959 209.485 178.983L209.16 178.658C208.184 177.682 207.1 177.227 205.907 177.292C204.714 177.357 203.608 177.899 202.589 178.918L198.649 182.858H190.843L199.109 174.592Z" fill="white"/>
<path fill-rule="evenodd" clip-rule="evenodd" d="M223.618 178.316L218.154 172.852C215.226 169.924 213.828 166.834 213.958 163.581C214.066 160.307 215.552 157.239 218.414 154.376C221.276 151.514 224.345 150.028 227.619 149.92C230.872 149.79 233.962 151.189 236.889 154.116L242.354 159.581C245.281 162.508 246.691 165.609 246.582 168.883C246.452 172.136 244.956 175.193 242.094 178.056C239.55 180.6 236.852 182.064 234 182.45L230.982 182.428C228.416 182.03 225.962 180.659 223.618 178.316ZM240.597 169.078C240.641 170.9 239.86 172.613 238.256 174.218C236.673 175.801 234.959 176.581 233.116 176.56C231.295 176.516 229.603 175.714 228.042 174.153L222.317 168.428C220.756 166.867 219.954 165.175 219.91 163.354C219.889 161.51 220.669 159.797 222.252 158.214C223.857 156.61 225.57 155.829 227.392 155.872C229.213 155.916 230.904 156.718 232.466 158.279L238.19 164.004C239.752 165.566 240.554 167.257 240.597 169.078Z" fill="white"/>
<path d="M285.925 167.776L290.153 163.548L309.105 182.5H300.648L285.925 167.776Z" fill="white"/>
<path d="M272.654 181.047L280.818 172.883L296.111 182.5H285.705L280.395 179.161L279.81 179.746L282.5 182.437H274.043L272.654 181.047Z" fill="white"/>
</g>
</g>
<defs>
<filter id="filter0_d_792_10416" x="0.75" y="0.75" width="527.5" height="192.5" filterUnits="userSpaceOnUse" color-interpolation-filters="sRGB">
<feFlood flood-opacity="0" result="BackgroundImageFix"/>
<feColorMatrix in="SourceAlpha" type="matrix" values="0 0 0 0 0 0 0 0 0 0 0 0 0 0 0 0 0 0 127 0" result="hardAlpha"/>
<feOffset dy="4"/>
<feGaussianBlur stdDeviation="3.5"/>
<feComposite in2="hardAlpha" operator="out"/>
<feColorMatrix type="matrix" values="0 0 0 0 0 0 0 0 0 0 0 0 0 0 0 0 0 0 0.25 0"/>
<feBlend mode="normal" in2="BackgroundImageFix" result="effect1_dropShadow_792_10416"/>
<feBlend mode="normal" in="SourceGraphic" in2="effect1_dropShadow_792_10416" result="shape"/>
</filter>
<clipPath id="clip0_792_10416">
<rect width="347" height="178" fill="white" transform="translate(8 4)"/>
</clipPath>
</defs>
</svg>
