<svg width="24" height="24" viewBox="0 0 24 24" fill="none" xmlns="http://www.w3.org/2000/svg">
<path fill-rule="evenodd" clip-rule="evenodd" d="M21 10.8332V19.5004C21 20.3288 20.3284 21.0004 19.5 21.0004H15.75C14.9216 21.0004 14.25 20.3288 14.25 19.5004V15.7504C14.25 15.3361 13.9142 15.0004 13.5 15.0004H10.5C10.0858 15.0004 9.75 15.3361 9.75 15.7504V19.5004C9.75 20.3288 9.07843 21.0004 8.25 21.0004H4.5C3.67157 21.0004 3 20.3288 3 19.5004V10.8332C2.99994 10.4134 3.17573 10.0129 3.48469 9.7288L10.9847 2.65255L10.995 2.64223C11.5672 2.12186 12.4412 2.12186 13.0134 2.64223C13.0166 2.6459 13.0201 2.64935 13.0238 2.65255L20.5238 9.7288C20.8296 10.0144 21.0022 10.4147 21 10.8332Z" stroke="black" stroke-width="1.5"/>
</svg>
