<svg width="25" height="25" viewBox="0 0 25 25" fill="none" xmlns="http://www.w3.org/2000/svg">
<path d="M3.1237 3.125H21.8737C22.449 3.125 22.9154 3.59137 22.9154 4.16667V7.29167C22.9154 7.86696 22.449 8.33333 21.8737 8.33333H3.1237C2.5484 8.33333 2.08203 7.86696 2.08203 7.29167V4.16667C2.08203 3.59137 2.5484 3.125 3.1237 3.125Z" stroke="black" stroke-width="1.5" stroke-linecap="round" stroke-linejoin="round"/>
<path d="M4.16797 8.33301V19.7913C4.16797 20.3439 4.38746 20.8738 4.77816 21.2645C5.16886 21.6552 5.69877 21.8747 6.2513 21.8747H18.7513C19.3038 21.8747 19.8337 21.6552 20.2244 21.2645C20.6151 20.8738 20.8346 20.3439 20.8346 19.7913V8.33301" stroke="black" stroke-width="1.5" stroke-linecap="round" stroke-linejoin="round"/>
<path d="M10.418 12.5H14.5846" stroke="black" stroke-width="1.5" stroke-linecap="round" stroke-linejoin="round"/>
</svg>
