<svg width="25" height="25" viewBox="0 0 25 25" fill="none" xmlns="http://www.w3.org/2000/svg">
<path d="M8.33268 22.9167C8.90798 22.9167 9.37435 22.4503 9.37435 21.875C9.37435 21.2997 8.90798 20.8334 8.33268 20.8334C7.75739 20.8334 7.29102 21.2997 7.29102 21.875C7.29102 22.4503 7.75739 22.9167 8.33268 22.9167Z" stroke="black" stroke-width="1.5" stroke-linecap="round" stroke-linejoin="round"/>
<path d="M19.7917 22.9167C20.367 22.9167 20.8333 22.4503 20.8333 21.875C20.8333 21.2997 20.367 20.8334 19.7917 20.8334C19.2164 20.8334 18.75 21.2997 18.75 21.875C18.75 22.4503 19.2164 22.9167 19.7917 22.9167Z" stroke="black" stroke-width="1.5" stroke-linecap="round" stroke-linejoin="round"/>
<path d="M2.13477 2.13525H4.2181L6.98893 15.0728C7.09058 15.5466 7.35421 15.9701 7.73446 16.2705C8.11472 16.5709 8.58779 16.7294 9.07227 16.7186H19.2598C19.7339 16.7178 20.1936 16.5553 20.5629 16.258C20.9322 15.9607 21.1891 15.5462 21.291 15.0832L23.0098 7.34359H5.33268" stroke="black" stroke-width="1.5" stroke-linecap="round" stroke-linejoin="round"/>
</svg>
