<svg width="56" height="55" viewBox="0 0 56 55" fill="none" xmlns="http://www.w3.org/2000/svg">
<path d="M32.5835 41.2501V13.7501C32.5835 12.5345 32.1006 11.3687 31.2411 10.5092C30.3815 9.64963 29.2157 9.16675 28.0002 9.16675H9.66683C8.45125 9.16675 7.28546 9.64963 6.42592 10.5092C5.56638 11.3687 5.0835 12.5345 5.0835 13.7501V38.9584C5.0835 39.5662 5.32494 40.1491 5.75471 40.5789C6.18448 41.0086 6.76737 41.2501 7.37516 41.2501H11.9585" stroke="black" stroke-width="1.7" stroke-linecap="round" stroke-linejoin="round"/>
<path d="M34.875 41.25H21.125" stroke="black" stroke-width="1.7" stroke-linecap="round" stroke-linejoin="round"/>
<path d="M44.0418 41.2499H48.6252C49.233 41.2499 49.8158 41.0085 50.2456 40.5787C50.6754 40.1489 50.9168 39.566 50.9168 38.9583V30.5937C50.9159 30.0736 50.7381 29.5693 50.4127 29.1637L42.4377 19.1949C42.2233 18.9265 41.9514 18.7097 41.642 18.5606C41.3326 18.4114 40.9936 18.3337 40.6502 18.3333H32.5835" stroke="black" stroke-width="1.7" stroke-linecap="round" stroke-linejoin="round"/>
<path d="M39.4583 45.8334C41.9896 45.8334 44.0417 43.7814 44.0417 41.2501C44.0417 38.7188 41.9896 36.6667 39.4583 36.6667C36.927 36.6667 34.875 38.7188 34.875 41.2501C34.875 43.7814 36.927 45.8334 39.4583 45.8334Z" stroke="black" stroke-width="1.7" stroke-linecap="round" stroke-linejoin="round"/>
<path d="M16.5418 45.8334C19.0731 45.8334 21.1252 43.7814 21.1252 41.2501C21.1252 38.7188 19.0731 36.6667 16.5418 36.6667C14.0105 36.6667 11.9585 38.7188 11.9585 41.2501C11.9585 43.7814 14.0105 45.8334 16.5418 45.8334Z" stroke="black" stroke-width="1.7" stroke-linecap="round" stroke-linejoin="round"/>
</svg>
