<svg width="29" height="29" viewBox="0 0 29 29" fill="none" xmlns="http://www.w3.org/2000/svg">
<rect width="29" height="29" rx="14.5" fill="white" fill-opacity="0.2"/>
<path d="M14.3779 7.37231C13.4331 8.31715 12.9023 9.59862 12.9023 10.9348C12.9023 12.271 13.4331 13.5525 14.3779 14.4973C15.3228 15.4421 16.6042 15.973 17.9404 15.973C19.2766 15.973 20.5581 15.4421 21.5029 14.4973C21.5029 15.9065 21.0851 17.2841 20.3022 18.4558C19.5192 19.6275 18.4065 20.5407 17.1046 21.08C15.8026 21.6192 14.37 21.7603 12.9879 21.4854C11.6058 21.2105 10.3362 20.5319 9.3398 19.5355C8.34335 18.539 7.66476 17.2694 7.38984 15.8873C7.11492 14.5052 7.25602 13.0726 7.79529 11.7707C8.33457 10.4688 9.24779 9.356 10.4195 8.57309C11.5912 7.79019 12.9687 7.37231 14.3779 7.37231Z" stroke="#EFEFEF" stroke-width="0.76" stroke-linecap="round" stroke-linejoin="round"/>
</svg>
