<svg width="26" height="26" viewBox="0 0 26 26" fill="none" xmlns="http://www.w3.org/2000/svg">
<path d="M10.6353 16.1786C10.5423 15.8181 10.3544 15.4891 10.0911 15.2259C9.82786 14.9626 9.49888 14.7747 9.13839 14.6817L2.74776 13.0338C2.63873 13.0029 2.54277 12.9372 2.47444 12.8468C2.40611 12.7564 2.36914 12.6461 2.36914 12.5328C2.36914 12.4194 2.40611 12.3092 2.47444 12.2188C2.54277 12.1283 2.63873 12.0627 2.74776 12.0317L9.13839 10.3828C9.49875 10.2899 9.82765 10.1021 10.0909 9.83906C10.3541 9.576 10.5421 9.24724 10.6353 8.88694L12.2832 2.49631C12.3138 2.38685 12.3794 2.29042 12.47 2.22172C12.5605 2.15303 12.6711 2.11584 12.7847 2.11584C12.8984 2.11584 13.009 2.15303 13.0995 2.22172C13.1901 2.29042 13.2557 2.38685 13.2863 2.49631L14.9332 8.88694C15.0262 9.24743 15.2141 9.57641 15.4773 9.83966C15.7406 10.1029 16.0696 10.2908 16.4301 10.3838L22.8207 12.0307C22.9306 12.061 23.0275 12.1265 23.0966 12.2172C23.1656 12.3079 23.203 12.4188 23.203 12.5328C23.203 12.6468 23.1656 12.7576 23.0966 12.8483C23.0275 12.939 22.9306 13.0045 22.8207 13.0349L16.4301 14.6817C16.0696 14.7747 15.7406 14.9626 15.4773 15.2259C15.2141 15.4891 15.0262 15.8181 14.9332 16.1786L13.2853 22.5692C13.2546 22.6787 13.189 22.7751 13.0985 22.8438C13.0079 22.9125 12.8974 22.9497 12.7837 22.9497C12.67 22.9497 12.5595 22.9125 12.4689 22.8438C12.3784 22.7751 12.3128 22.6787 12.2821 22.5692L10.6353 16.1786Z" stroke="black" stroke-width="1.5" stroke-linecap="round" stroke-linejoin="round"/>
<path d="M21.1191 3.15747V7.32414" stroke="black" stroke-width="1.5" stroke-linecap="round" stroke-linejoin="round"/>
<path d="M23.2018 5.24084H19.0352" stroke="black" stroke-width="1.5" stroke-linecap="round" stroke-linejoin="round"/>
<path d="M4.45117 17.7408V19.8242" stroke="black" stroke-width="1.5" stroke-linecap="round" stroke-linejoin="round"/>
<path d="M5.49349 18.7825H3.41016" stroke="black" stroke-width="1.5" stroke-linecap="round" stroke-linejoin="round"/>
</svg>
