<svg width="84" height="84" viewBox="0 0 84 84" fill="none" xmlns="http://www.w3.org/2000/svg">
<path d="M34.779 54.2509C34.4666 53.0396 33.8352 51.9342 32.9507 51.0497C32.0662 50.1652 30.9608 49.5338 29.7495 49.2214L8.27705 43.6844C7.9107 43.5804 7.58828 43.3597 7.35869 43.0559C7.1291 42.7521 7.00488 42.3817 7.00488 42.0009C7.00488 41.6201 7.1291 41.2496 7.35869 40.9458C7.58828 40.642 7.9107 40.4214 8.27705 40.3174L29.7495 34.7769C30.9604 34.4647 32.0655 33.8339 32.95 32.95C33.8344 32.0661 34.466 30.9615 34.779 29.7509L40.316 8.27837C40.419 7.91059 40.6394 7.58657 40.9437 7.35575C41.2479 7.12494 41.6194 7 42.0013 7C42.3832 7 42.7546 7.12494 43.0589 7.35575C43.3632 7.58657 43.5836 7.91059 43.6865 8.27837L49.22 29.7509C49.5325 30.9621 50.1639 32.0675 51.0484 32.952C51.9329 33.8366 53.0383 34.4679 54.2495 34.7804L75.722 40.3139C76.0913 40.4157 76.4169 40.6359 76.649 40.9406C76.881 41.2454 77.0067 41.6178 77.0067 42.0009C77.0067 42.3839 76.881 42.7564 76.649 43.0611C76.4169 43.3658 76.0913 43.586 75.722 43.6879L54.2495 49.2214C53.0383 49.5338 51.9329 50.1652 51.0484 51.0497C50.1639 51.9342 49.5325 53.0396 49.22 54.2509L43.683 75.7234C43.5801 76.0912 43.3597 76.4152 43.0554 76.646C42.7511 76.8768 42.3797 77.0017 41.9978 77.0017C41.6159 77.0017 41.2444 76.8768 40.9402 76.646C40.6359 76.4152 40.4155 76.0912 40.3125 75.7234L34.779 54.2509Z" stroke="#601E8D" stroke-width="1.5" stroke-linecap="round" stroke-linejoin="round"/>
<path d="M69.999 10.5V24.5" stroke="#601E8D" stroke-width="1.5" stroke-linecap="round" stroke-linejoin="round"/>
<path d="M77 17.5H63" stroke="#601E8D" stroke-width="1.5" stroke-linecap="round" stroke-linejoin="round"/>
<path d="M14.001 59.4999V66.4999" stroke="#601E8D" stroke-width="1.5" stroke-linecap="round" stroke-linejoin="round"/>
<path d="M17.5 63H10.5" stroke="#601E8D" stroke-width="1.5" stroke-linecap="round" stroke-linejoin="round"/>
</svg>
