<svg width="78" height="78" viewBox="0 0 78 78" fill="none" xmlns="http://www.w3.org/2000/svg">
<path d="M32.2952 50.3758C32.005 49.2511 31.4188 48.2246 30.5974 47.4033C29.7761 46.582 28.7497 45.9957 27.6249 45.7056L7.68618 40.5641C7.346 40.4675 7.04661 40.2626 6.83342 39.9805C6.62023 39.6984 6.50488 39.3544 6.50488 39.0008C6.50488 38.6472 6.62023 38.3032 6.83342 38.0211C7.04661 37.739 7.346 37.5341 7.68618 37.4376L27.6249 32.2928C28.7493 32.0029 29.7754 31.4172 30.5967 30.5964C31.418 29.7757 32.0045 28.7499 32.2952 27.6258L37.4367 7.68706C37.5322 7.34554 37.7369 7.04467 38.0195 6.83034C38.302 6.61601 38.6469 6.5 39.0015 6.5C39.3562 6.5 39.7011 6.61601 39.9836 6.83034C40.2662 7.04467 40.4709 7.34554 40.5664 7.68706L45.7047 27.6258C45.9948 28.7505 46.5811 29.777 47.4024 30.5983C48.2238 31.4197 49.2502 32.0059 50.3749 32.2961L70.3137 37.4343C70.6565 37.5289 70.9589 37.7333 71.1744 38.0163C71.3899 38.2993 71.5066 38.6451 71.5066 39.0008C71.5066 39.3565 71.3899 39.7023 71.1744 39.9853C70.9589 40.2683 70.6565 40.4727 70.3137 40.5673L50.3749 45.7056C49.2502 45.9957 48.2238 46.582 47.4024 47.4033C46.5811 48.2246 45.9948 49.2511 45.7047 50.3758L40.5632 70.3146C40.4676 70.6561 40.2629 70.9569 39.9804 71.1713C39.6978 71.3856 39.3529 71.5016 38.9983 71.5016C38.6437 71.5016 38.2988 71.3856 38.0162 71.1713C37.7337 70.9569 37.529 70.6561 37.4334 70.3146L32.2952 50.3758Z" fill="white" stroke="white" stroke-width="1.5" stroke-linecap="round" stroke-linejoin="round"/>
<path d="M64.999 9.75V22.75" stroke="white" stroke-width="1.5" stroke-linecap="round" stroke-linejoin="round"/>
<path d="M71.5 16.25H58.5" stroke="white" stroke-width="1.5" stroke-linecap="round" stroke-linejoin="round"/>
<path d="M13.001 55.2499V61.7499" stroke="white" stroke-width="1.5" stroke-linecap="round" stroke-linejoin="round"/>
<path d="M16.25 58.5H9.75" stroke="white" stroke-width="1.5" stroke-linecap="round" stroke-linejoin="round"/>
</svg>
