<svg width="81" height="80" viewBox="0 0 81 80" fill="none" xmlns="http://www.w3.org/2000/svg">
<rect width="80.8668" height="80" rx="40" fill="#F5F5F5"/>
<path d="M58.2029 54.3548C55.8798 53.7987 55.5373 53.7987 54.3155 53.5625H27.9873C18.3523 54.8315 15.32 55.9855 15 58.9326C15.3307 62.1336 19.4785 63.058 28.5174 64.3028C37.7528 65.2272 42.9998 65.2202 52.4813 64.3574C59.3845 63.544 62.3616 62.7567 65.1825 60.4292C66.3155 58.9723 65.8893 57.8762 65.0058 57.0839C64.1223 56.2916 60.526 54.9109 58.2029 54.3548Z" fill="black"/>
<path d="M58.2029 53.3275C55.8798 52.7714 55.5373 52.7714 54.3155 52.5352H27.9873C18.3523 53.8041 15.32 54.9582 15 57.9053C15.3307 61.1062 19.4785 62.0306 28.5174 63.2754C37.7528 64.1999 42.9998 64.1929 52.4813 63.3301C59.3845 62.5166 62.3616 61.7294 65.1825 59.4019C66.3155 57.945 65.8893 56.8489 65.0058 56.0566C64.1223 55.2642 60.526 53.8836 58.2029 53.3275Z" fill="white"/>
<path fill-rule="evenodd" clip-rule="evenodd" d="M51.899 21.8808C51.1153 19.2501 50.2213 16.8772 47.6596 15.4907C45.4592 14.589 43.3285 14.9549 41.4717 16.3841C40.1805 17.5649 39.8029 19.1436 39.6738 20.8333C39.6185 23.0319 39.6027 24.318 40.1674 28.6857C40.9256 33.5241 41.352 38.3157 41.4165 43.2127H38.5893C38.6266 38.5095 38.3256 35.7736 36.9107 30.6237C35.8256 26.1679 35 23.8714 32.2282 20.8333C29.1125 17.8889 27.1331 17.3932 24.3651 18.9151C21.7168 20.3711 21.1881 22.1233 21.6262 26.1339C21.6875 26.3728 21.7453 26.6016 21.8011 26.8225C22.2975 28.7881 22.6366 30.1306 23.8521 32.3844C26.4836 40.1978 27.6181 44.5524 27.9873 52.1923C28.0743 54.0468 28.126 58.2467 27.6368 60.2106C27.9344 60.3534 28.8275 60.6575 30.0194 60.7317C31.3178 51.5834 30.1513 46.3884 28.0758 37.4904L24.3651 27.9827C24.3651 27.9827 22.7639 21.8571 25.602 20.8333C29.341 19.4845 31.5148 23.5276 33.1394 26.5494C33.1597 26.5872 33.1799 26.6247 33.2 26.6622C34.8762 29.7784 35.1672 32.0751 35.5521 35.1128C35.6619 35.9796 35.7794 36.9068 35.9389 37.9306C36.2488 40.8931 36.3806 44.6213 36.3806 44.7973C36.3806 44.9734 36.5573 45.7657 37.3525 45.7657C37.7483 45.7657 38.3222 45.6814 38.9825 45.5844C39.6488 45.4866 40.4031 45.3758 41.1515 45.3256C41.9597 45.2713 42.8767 45.4347 43.7211 45.5852C45.0348 45.8194 46.1728 46.0222 46.4525 45.3256C46.9119 44.1811 45.115 43.2958 43.8903 43.5649C43.8903 43.5649 43.2405 36.1679 42.1234 25.2536C41.7121 18.3253 43.0468 17.9578 44.6016 17.5297C44.6295 17.522 44.6575 17.5143 44.6855 17.5065C46.2758 17.0664 48.8373 18.7671 50.0748 24.3733C51.3124 29.9794 51.203 38.4619 48.7496 46.1179C48.714 46.2288 48.6688 46.3165 48.6257 46.4001C48.5601 46.5274 48.4993 46.6455 48.4845 46.8221C48.4417 47.3364 48.8419 47.7662 49.0983 48.0415C49.1323 48.078 49.1638 48.1118 49.1913 48.1427C49.264 48.242 49.3346 48.3379 49.4034 48.4315C50.3803 49.7596 50.9891 50.5873 52.0185 53.2487C52.8357 55.4025 53.2356 56.7259 53.2554 60.4676C54.1178 60.3761 55.0154 60.1218 55.3563 60.006C55.6824 57.2238 54.7983 53.7058 54.3155 52.1923C53.5497 49.8521 52.7445 48.684 51.0466 46.7011C54.0292 35.3973 53.5842 30.347 51.899 21.8808Z" fill="black"/>
<path d="M58.2029 52.9846C55.8798 52.4285 55.5373 52.4285 54.3155 52.1923C54.7983 53.7058 55.6824 57.2238 55.3563 60.006C55.0154 60.1218 54.1178 60.3761 53.2554 60.4676C44.8287 61.3895 39.6414 61.3219 30.0194 60.7317C28.8275 60.6575 27.9344 60.3534 27.6368 60.2106C28.126 58.2467 28.0743 54.0468 27.9873 52.1923C18.3523 53.4613 15.32 54.6153 15 57.5624C15.3307 60.7633 19.4785 61.6877 28.5174 62.9325C37.7528 63.857 42.9998 63.85 52.4813 62.9872C59.3846 62.1738 62.3616 61.3865 65.1825 59.059C66.3155 57.6021 65.8893 56.506 65.0058 55.7137C64.1223 54.9214 60.526 53.5407 58.2029 52.9846Z" fill="#601E8D"/>
<path d="M30.0194 60.7317C39.6414 61.3219 44.8287 61.3895 53.2554 60.4676C53.2356 56.7259 52.8357 55.4025 52.0185 53.2487C50.9891 50.5873 50.3803 49.7596 49.4034 48.4315C49.3346 48.3379 49.264 48.242 49.1913 48.1427C49.1638 48.1118 49.1323 48.078 49.0983 48.0415C48.8419 47.7662 48.4417 47.3364 48.4845 46.8221C48.4993 46.6455 48.5601 46.5274 48.6257 46.4001C48.6688 46.3165 48.714 46.2288 48.7496 46.1179C51.203 38.4619 51.3124 29.9794 50.0748 24.3733C48.8373 18.7671 46.2758 17.0664 44.6855 17.5065L44.6016 17.5297C43.0468 17.9578 41.7121 18.3253 42.1234 25.2536C43.2405 36.1679 43.8903 43.5649 43.8903 43.5649C45.115 43.2958 46.9119 44.1811 46.4525 45.3256C46.1728 46.0222 45.0348 45.8194 43.7211 45.5852C42.8767 45.4347 41.9597 45.2713 41.1515 45.3256C40.4031 45.3758 39.6488 45.4866 38.9825 45.5844C38.3222 45.6814 37.7483 45.7657 37.3525 45.7657C36.5573 45.7657 36.3806 44.9734 36.3806 44.7973C36.3806 44.6213 36.2488 40.8931 35.9389 37.9306C35.7794 36.9068 35.6619 35.9796 35.5521 35.1128C35.1672 32.0751 34.8762 29.7784 33.2 26.6622L33.1394 26.5494C31.5148 23.5276 29.341 19.4845 25.602 20.8333C22.7639 21.8571 24.3651 27.9827 24.3651 27.9827L28.0758 37.4904C30.1513 46.3884 31.3178 51.5834 30.0194 60.7317Z" fill="white"/>
<path d="M38.4701 54.8491C38.6358 55.0673 38.7119 55.4592 38.1868 55.4119C37.6617 55.3645 36.519 55.1166 35.9413 55.3636C35.592 55.5249 35.3723 55.715 34.946 56.2C34.7547 56.4279 34.6366 56.4927 34.3943 56.4252C34.2065 56.2904 34.2359 56.0686 34.3275 55.8991C34.4191 55.7296 35.0257 55.0683 35.6256 54.7547C36.343 54.4289 36.8125 54.5693 37.3673 54.6155C36.9392 54.07 35.5261 53.7726 35.3336 53.7651C35.1411 53.7577 35.0188 53.6398 34.9988 53.465C34.9755 53.2603 35.1823 53.0958 35.3682 53.0896C35.5541 53.0834 36.0311 53.1085 36.4339 53.2265C37.4086 53.512 38.3044 54.6309 38.4701 54.8491Z" fill="black"/>
<ellipse cx="47.1626" cy="53.6149" rx="1.59029" ry="2.20087" fill="black"/>
<ellipse cx="42.8355" cy="58.1798" rx="1.23249" ry="1.67864" transform="rotate(90 42.8355 58.1798)" fill="black"/>
<path d="M48.9275 51.1533C48.5198 50.8048 48.2343 50.2621 47.047 50.2621C45.8597 50.2621 45.5741 50.8048 45.1665 51.1533C45.1665 50.5343 46.0084 49.7783 47.047 49.7783C48.0855 49.7783 48.9275 50.5343 48.9275 51.1533Z" fill="black"/>
</svg>
