<svg width="14" height="14" viewBox="0 0 14 14" fill="none" xmlns="http://www.w3.org/2000/svg">
<path d="M6.70327 1.0432C6.73066 0.987858 6.77297 0.941278 6.82543 0.908711C6.87789 0.876144 6.9384 0.858887 7.00015 0.858887C7.06189 0.858887 7.12241 0.876144 7.17487 0.908711C7.22732 0.941278 7.26963 0.987858 7.29702 1.0432L8.74077 3.96757C8.83588 4.16005 8.97628 4.32658 9.14991 4.45285C9.32355 4.57913 9.52523 4.66139 9.73765 4.69257L12.9664 5.16507C13.0276 5.17393 13.0851 5.19974 13.1323 5.23957C13.1796 5.2794 13.2148 5.33166 13.2339 5.39045C13.253 5.44924 13.2553 5.5122 13.2405 5.57222C13.2257 5.63224 13.1944 5.68692 13.1501 5.73007L10.8151 8.00382C10.6612 8.15388 10.5459 8.33912 10.4794 8.54359C10.4129 8.74806 10.3971 8.96563 10.4333 9.17757L10.9845 12.3901C10.9953 12.4512 10.9887 12.5142 10.9655 12.5717C10.9422 12.6293 10.9032 12.6792 10.853 12.7157C10.8027 12.7522 10.7433 12.7738 10.6813 12.7781C10.6194 12.7824 10.5575 12.7693 10.5026 12.7401L7.6164 11.2226C7.42622 11.1227 7.21464 11.0705 6.99984 11.0705C6.78504 11.0705 6.57345 11.1227 6.38327 11.2226L3.49765 12.7401C3.44286 12.7691 3.38102 12.7821 3.31918 12.7777C3.25734 12.7733 3.19797 12.7517 3.14783 12.7152C3.09769 12.6787 3.05879 12.6289 3.03556 12.5715C3.01232 12.514 3.00568 12.4511 3.0164 12.3901L3.56702 9.1782C3.6034 8.96615 3.58764 8.74844 3.52111 8.54385C3.45458 8.33926 3.33928 8.15392 3.18515 8.00382L0.850148 5.7307C0.805519 5.68759 0.773894 5.63282 0.758875 5.57262C0.743856 5.51242 0.746046 5.44921 0.765197 5.39019C0.784349 5.33117 0.81969 5.27872 0.867196 5.23881C0.914702 5.1989 0.972463 5.17313 1.0339 5.16445L4.26202 4.69257C4.47468 4.66163 4.67664 4.57948 4.85051 4.45319C5.02439 4.32689 5.16496 4.16024 5.26015 3.96757L6.70327 1.0432Z" stroke="#DFDFDF" stroke-width="0.5" stroke-linecap="round" stroke-linejoin="round"/>
</svg>
