<svg width="25" height="26" viewBox="0 0 25 26" fill="none" xmlns="http://www.w3.org/2000/svg">
<path d="M10.3511 16.2549C10.2581 15.8944 10.0702 15.5654 9.80693 15.3022C9.54368 15.0389 9.2147 14.851 8.85421 14.758L2.46358 13.1101C2.35455 13.0792 2.25859 13.0135 2.19026 12.9231C2.12193 12.8326 2.08496 12.7224 2.08496 12.6091C2.08496 12.4957 2.12193 12.3855 2.19026 12.2951C2.25859 12.2046 2.35455 12.139 2.46358 12.108L8.85421 10.4591C9.21457 10.3662 9.54347 10.1784 9.80671 9.91536C10.0699 9.6523 10.2579 9.32353 10.3511 8.96323L11.999 2.57261C12.0296 2.46315 12.0952 2.36671 12.1858 2.29802C12.2763 2.22932 12.3869 2.19214 12.5006 2.19214C12.6142 2.19214 12.7248 2.22932 12.8153 2.29802C12.9059 2.36671 12.9715 2.46315 13.0021 2.57261L14.649 8.96323C14.742 9.32372 14.9299 9.65271 15.1931 9.91596C15.4564 10.1792 15.7854 10.3671 16.1459 10.4601L22.5365 12.107C22.6464 12.1373 22.7433 12.2028 22.8124 12.2935C22.8814 12.3842 22.9188 12.4951 22.9188 12.6091C22.9188 12.7231 22.8814 12.8339 22.8124 12.9246C22.7433 13.0153 22.6464 13.0808 22.5365 13.1111L16.1459 14.758C15.7854 14.851 15.4564 15.0389 15.1931 15.3022C14.9299 15.5654 14.742 15.8944 14.649 16.2549L13.0011 22.6455C12.9704 22.755 12.9048 22.8514 12.8143 22.9201C12.7237 22.9888 12.6132 23.026 12.4995 23.026C12.3859 23.026 12.2753 22.9888 12.1847 22.9201C12.0942 22.8514 12.0286 22.755 11.998 22.6455L10.3511 16.2549Z" stroke="black" stroke-width="1.5" stroke-linecap="round" stroke-linejoin="round"/>
<path d="M20.833 3.23389V7.40055" stroke="black" stroke-width="1.5" stroke-linecap="round" stroke-linejoin="round"/>
<path d="M22.9167 5.31714H18.75" stroke="black" stroke-width="1.5" stroke-linecap="round" stroke-linejoin="round"/>
<path d="M4.16699 17.8174V19.9007" stroke="black" stroke-width="1.5" stroke-linecap="round" stroke-linejoin="round"/>
<path d="M5.20833 18.8589H3.125" stroke="black" stroke-width="1.5" stroke-linecap="round" stroke-linejoin="round"/>
</svg>
